<?xml version="1.0" encoding="UTF-8"?>
<svg id="Layer_2" data-name="Layer 2" xmlns="http://www.w3.org/2000/svg" viewBox="0 0 155.92 108.54">
  <defs>
    <style>
      .cls-1 {
        fill: #00c7b5;
      }

      .cls-1, .cls-2, .cls-3, .cls-4 {
        stroke-width: 0px;
      }

      .cls-2 {
        fill: #6d6e70;
      }

      .cls-5 {
        fill: #7582ff;
        stroke: #4a5aa8;
        stroke-miterlimit: 10;
        stroke-width: 2px;
      }

      .cls-3 {
        fill: #fff;
      }

      .cls-4 {
        fill: #d0d2d3;
      }
    </style>
  </defs>
  <g id="guyts">
    <rect class="cls-5" x="1" y="87.63" width="149.35" height="19.91" rx="5.84" ry="5.84"/>
    <g>
      <g>
        <path class="cls-3" d="M9.2,28.28L17.37,5.58c.18-.49.63-.84,1.15-.88l4.34-.36c.97-.08,1.7.86,1.37,1.78l-6.92,19.57c-.32.92.41,1.86,1.37,1.78l11.89-1c.74-.06,1.38.49,1.45,1.22l.3,3.51c.06.74-.49,1.38-1.22,1.45l-20.16,1.7c-.74.06-1.38-.49-1.45-1.22l-.36-4.27c-.02-.19,0-.38.07-.57ZM23.43,18.39l3.75-.32c.74-.06,1.38.49,1.45,1.22l1.46,17.37c.06.74-.49,1.38-1.22,1.45l-3.75.32c-.74.06-1.38-.49-1.45-1.22l-1.46-17.37c-.06-.74.49-1.38,1.22-1.45Z"/>
        <path class="cls-3" d="M20.16,41.37l-.22-2.58c-.06-.74-.71-1.28-1.45-1.22l-11.08.93c-.74.06-1.38-.49-1.45-1.22l-.75-8.94c-.02-.19,0-.38.07-.57L14.59,1.96c.18-.49.63-.84,1.15-.88L28.47,0c.97-.08,1.7.86,1.37,1.78l-3.76,10.62c-.32.92.41,1.86,1.37,1.78l3.23-.27c.74-.06,1.38.49,1.45,1.22l.5,5.95c.06.74.71,1.28,1.45,1.22h0c.74-.06,1.39.49,1.45,1.22l.94,11.18c.06.74-.49,1.38-1.22,1.45h0c-.74.06-1.28.71-1.22,1.45l.22,2.58c.06.74-.49,1.38-1.22,1.45l-11.41.96c-.74.06-1.38-.49-1.45-1.22Z"/>
      </g>
      <g>
        <path class="cls-3" d="M55.35,38.8c-1.73-1.71-2.6-4.07-2.6-7.1v-15.47c0-3.06.87-5.43,2.61-7.12,1.74-1.69,4.26-2.54,7.57-2.54s5.85.84,7.58,2.53,2.6,4.06,2.6,7.14v15.47c0,3.06-.87,5.43-2.61,7.12-1.74,1.69-4.26,2.54-7.57,2.54s-5.85-.85-7.58-2.56ZM65.79,33.87c.61-.88.91-2.15.91-3.8v-12.19c0-1.65-.3-2.92-.91-3.8s-1.56-1.32-2.85-1.32-2.25.44-2.85,1.32-.91,2.15-.91,3.8v12.19c0,1.65.3,2.92.91,3.8.61.88,1.56,1.32,2.85,1.32s2.25-.44,2.85-1.32Z"/>
        <path class="cls-3" d="M62.93,45.21c-4.35,0-7.81-1.23-10.28-3.67-2.48-2.45-3.74-5.76-3.74-9.84v-15.47c0-4.12,1.27-7.44,3.77-9.88,2.47-2.41,5.92-3.63,10.25-3.63s7.8,1.22,10.26,3.62c2.5,2.43,3.76,5.76,3.76,9.89v15.47c0,4.12-1.27,7.44-3.77,9.88-2.47,2.41-5.92,3.63-10.25,3.63Z"/>
      </g>
      <g>
        <path class="cls-3" d="M94.1,37.32c.1-.48.34-.92.7-1.27l13.26-12.79c.62-.59,1.14-1.23,1.56-1.91.41-.68.68-1.33.81-1.96v-.05c.2-.93.08-1.7-.36-2.32-.44-.61-1.15-1.02-2.15-1.23-.97-.2-1.82,0-2.56.57s-1.31,1.5-1.7,2.77v.02s-5.99-1.23-5.99-1.23v-.02c.57-2.12,1.41-3.86,2.53-5.24s2.44-2.33,3.97-2.87c1.53-.53,3.19-.61,4.98-.25,1.93.4,3.51,1.08,4.74,2.07,1.23.98,2.06,2.22,2.5,3.7.44,1.49.47,3.17.08,5.06v.02c-.32,1.56-.89,3.06-1.69,4.49-.8,1.44-1.78,2.68-2.91,3.75l-6.34,5.89c-1.45,1.35-.77,3.78,1.17,4.18l3.55.73c1.32.27,2.17,1.56,1.9,2.88l-.3,1.46c-.27,1.32-1.56,2.17-2.88,1.9l-13.54-2.78c-1.32-.27-2.17-1.56-1.9-2.88l.55-2.7Z"/>
        <path class="cls-3" d="M111.98,50.22l-21.07-4.32c-1.32-.27-2.17-1.56-1.9-2.88l1.57-7.64c.1-.48.34-.92.7-1.27l8.27-7.97c1.41-1.36.72-3.75-1.2-4.15l-2.81-.58c-1.33-.27-2.18-1.57-1.9-2.89l.32-1.51c.01-.06.03-.13.05-.19.71-2.59,1.79-4.8,3.23-6.58,1.57-1.94,3.49-3.31,5.7-4.08,2.19-.76,4.55-.89,7.01-.38,2.52.52,4.67,1.47,6.37,2.83,1.84,1.48,3.12,3.36,3.79,5.61.62,2.09.68,4.43.16,6.93-.4,1.96-1.11,3.85-2.1,5.62-.99,1.77-2.22,3.35-3.64,4.67l-.88.82c-1.45,1.35-.77,3.78,1.17,4.18h0c1.32.27,2.17,1.56,1.9,2.88l-1.84,8.99c-.27,1.32-1.56,2.17-2.88,1.9Z"/>
      </g>
      <g>
        <path class="cls-3" d="M138.21,40.18c-1.6-.55-2.91-1.52-3.93-2.91-1.02-1.39-1.71-3.15-2.06-5.29v-.02c-.21-1.22-.27-2.53-.19-3.93.08-1.4.28-2.84.61-4.3.05-.25.11-.49.17-.74.06-.25.13-.49.2-.72l4.42-15.59,7.16-1.19-5.31,18.09-1.73-.57c.26-.79.73-1.44,1.41-1.97.67-.52,1.5-.87,2.49-1.03,1.85-.31,3.49-.17,4.93.39,1.44.57,2.63,1.55,3.56,2.93.93,1.39,1.58,3.14,1.93,5.25v.02c.36,2.16.28,4.07-.23,5.73-.52,1.67-1.44,3.02-2.78,4.07-1.34,1.04-3.05,1.74-5.12,2.08-2.06.34-3.9.24-5.5-.31ZM145.14,32.98c.5-.75.65-1.73.45-2.93v-.02c-.23-1.39-.71-2.4-1.45-3.05s-1.66-.88-2.78-.69c-1.11.18-1.9.71-2.39,1.57-.48.86-.61,1.98-.38,3.35v.02c.2,1.2.66,2.07,1.37,2.62.72.55,1.63.73,2.74.54,1.12-.19,1.94-.66,2.44-1.41Z"/>
        <path class="cls-3" d="M141.44,44.53c-1.59,0-3.09-.24-4.48-.71h0c-2.35-.81-4.3-2.24-5.79-4.27-1.38-1.87-2.31-4.21-2.76-6.94-.25-1.51-.33-3.11-.24-4.79.09-1.61.32-3.27.69-4.93.06-.27.12-.55.2-.83.08-.3.16-.59.24-.88l4.63-16.33c.27-.95,1.06-1.66,2.04-1.82l10-1.66c1.86-.31,3.4,1.43,2.87,3.24l-2.68,9.12c-.38,1.29.33,2.61,1.58,3.1,0,0,.01,0,.02,0,2.17.86,3.97,2.33,5.34,4.36,1.24,1.84,2.09,4.12,2.53,6.76v.04c.46,2.72.34,5.25-.35,7.48-.75,2.43-2.13,4.43-4.09,5.96-1.84,1.44-4.15,2.4-6.86,2.84-1,.16-1.96.25-2.9.25Z"/>
      </g>
      <path class="cls-1" d="M9.22,28.22L17.31,5.76c.22-.6.76-1.02,1.4-1.08l3.69-.31c1.18-.1,2.08,1.06,1.68,2.18l-6.62,18.7c-.4,1.12.5,2.27,1.68,2.18l11.14-.94c.9-.08,1.69.59,1.77,1.49l.25,2.92c.08.9-.59,1.69-1.49,1.77l-19.57,1.65c-.9.08-1.69-.59-1.77-1.49l-.33-3.92c-.02-.23.01-.47.09-.69ZM23.73,18.36l3.16-.27c.9-.08,1.69.59,1.77,1.49l1.41,16.78c.08.9-.59,1.69-1.49,1.77l-3.16.27c-.9.08-1.69-.59-1.77-1.49l-1.41-16.78c-.08-.9.59-1.69,1.49-1.77Z"/>
      <path class="cls-1" d="M55.35,38.8c-1.73-1.71-2.6-4.07-2.6-7.1v-15.47c0-3.06.87-5.43,2.61-7.12,1.74-1.69,4.26-2.54,7.57-2.54s5.85.84,7.58,2.53,2.6,4.06,2.6,7.14v15.47c0,3.06-.87,5.43-2.61,7.12-1.74,1.69-4.26,2.54-7.57,2.54s-5.85-.85-7.58-2.56ZM65.79,33.87c.61-.88.91-2.15.91-3.8v-12.19c0-1.65-.3-2.92-.91-3.8s-1.56-1.32-2.85-1.32-2.25.44-2.85,1.32-.91,2.15-.91,3.8v12.19c0,1.65.3,2.92.91,3.8.61.88,1.56,1.32,2.85,1.32s2.25-.44,2.85-1.32Z"/>
      <path class="cls-1" d="M94.16,37.02c.06-.29.2-.55.41-.75l13.48-13c.62-.59,1.14-1.23,1.56-1.91.41-.68.68-1.33.81-1.96v-.05c.2-.93.08-1.7-.36-2.32-.44-.61-1.15-1.02-2.15-1.23-.97-.2-1.82,0-2.56.57s-1.31,1.5-1.7,2.77v.02s-5.99-1.23-5.99-1.23v-.02c.57-2.12,1.41-3.86,2.53-5.24s2.44-2.33,3.97-2.87c1.53-.53,3.19-.61,4.98-.25,1.93.4,3.51,1.08,4.74,2.07,1.23.98,2.06,2.22,2.5,3.7.44,1.49.47,3.17.08,5.06v.02c-.32,1.56-.89,3.06-1.69,4.49-.8,1.44-1.78,2.68-2.91,3.75l-7.74,7.19c-.87.8-.46,2.25.7,2.49l6.4,1.31c.79.16,1.29.93,1.13,1.72l-.69,3.39c-.16.79-.93,1.29-1.72,1.13l-15.47-3.17c-.79-.16-1.29-.93-1.13-1.72l.81-3.97Z"/>
      <path class="cls-1" d="M138.21,40.18c-1.6-.55-2.91-1.52-3.93-2.91-1.02-1.39-1.71-3.15-2.06-5.29v-.02c-.21-1.22-.27-2.53-.19-3.93.08-1.4.28-2.84.61-4.3.05-.25.11-.49.17-.74.06-.25.13-.49.2-.72l4.27-15.08c.09-.31.35-.54.67-.6l5.32-.88c.61-.1,1.11.47.94,1.06l-4.69,15.98c-.13.45-.62.71-1.06.56h0c-.54-.18-.74-.82-.42-1.29.25-.37.55-.69.92-.98.67-.52,1.5-.87,2.49-1.03,1.85-.31,3.49-.17,4.93.39,1.44.57,2.63,1.55,3.56,2.93.93,1.39,1.58,3.14,1.93,5.25v.02c.36,2.16.28,4.07-.23,5.73-.52,1.67-1.44,3.02-2.78,4.07-1.34,1.04-3.05,1.74-5.12,2.08-2.06.34-3.9.24-5.5-.31ZM145.14,32.98c.5-.75.65-1.73.45-2.93v-.02c-.23-1.39-.71-2.4-1.45-3.05s-1.66-.88-2.78-.69c-1.11.18-1.9.71-2.39,1.57-.48.86-.61,1.98-.38,3.35v.02c.2,1.2.66,2.07,1.37,2.62.72.55,1.63.73,2.74.54,1.12-.19,1.94-.66,2.44-1.41Z"/>
      <g>
        <g>
          <path class="cls-4" d="M10.64,71.66s-2.98,3.51-3.63,8.22c0,0-.62,4.22,2.83,5.79s3.41.87,1.62,1.79-4.09,2.45-3.83,6.6c.33,5.09-.65,9.9,2.64,9.33s2.16-2.36,2.54-5.94,1.76-3.68,1.76-3.68c0,0-.3,8.11,1.14,8.95s3.42.94,4.08-.85-.19-8.58,2.36-9.33,4.34-3.3,4.34-6.79-1.82-10.52-.86-12.43,5.67-14.61,4.44-25.46-1.51-10.09-3.39-9.81-1.35,1.32-1.05,5.75.67,14.89-1.31,17.44-5.68,4.91-5.68,4.91l-6.67,2.92-1.32,2.58Z"/>
          <path class="cls-2" d="M9.77,104.21c-.61,0-1.14-.18-1.56-.53-1.25-1.05-1.26-3.3-1.27-6.16,0-1.1-.01-2.24-.09-3.4-.27-4.22,1.91-6.07,3.95-7.18-.36-.15-.8-.33-1.3-.56-3.14-1.43-3.51-4.95-3.27-6.61.64-4.56,3.3-7.99,3.75-8.53l1.41-2.74,6.87-3c.44-.29,3.68-2.45,5.43-4.7,1.45-1.86,1.62-9.84,1.15-16.91-.06-.83-.12-1.54-.17-2.14-.24-2.63-.37-4.08,1.88-4.42.11-.02.21-.03.3-.05.55-.1,1.17-.2,1.75.23.96.72,1.33,2.45,2.22,10.31,1.27,11.23-3.72,24.31-4.52,25.89-.47.94,0,4.17.38,6.77.29,2,.57,3.89.57,5.31,0,3.69-1.92,6.64-4.89,7.52-1.2.36-1.37,3.58-1.47,5.71-.07,1.38-.13,2.46-.38,3.15-.32.86-.91,1.47-1.72,1.76-1.02.36-2.32.17-3.47-.51-1.21-.72-1.53-4.07-1.56-7.04-.07.33-.14.72-.19,1.18-.09.87-.09,1.64-.09,2.32,0,2.02,0,3.77-3.09,4.3-.22.04-.43.06-.63.06ZM11.22,72.16c-.05.06-2.84,3.42-3.46,7.83-.02.15-.48,3.68,2.38,4.99,1.02.46,1.71.72,2.17.89.61.22,1.09.4,1.1.99.01.58-.48.79-.85.94-.19.08-.45.19-.77.35-1.91.98-3.64,2.37-3.41,5.86.08,1.21.08,2.37.09,3.49.01,2.17.02,4.41.72,4.99.07.06.3.25.94.14,1.81-.31,1.81-.79,1.81-2.78,0-.72,0-1.53.1-2.48.42-4.02,2.13-4.34,2.47-4.36l.85-.06-.03.85c-.14,3.92.22,7.79.78,8.27.74.44,1.58.58,2.16.38.37-.13.63-.41.79-.84.17-.47.23-1.6.29-2.7.15-2.87.33-6.44,2.57-7.11,2.3-.68,3.79-3.06,3.79-6.05,0-1.31-.28-3.23-.55-5.09-.57-3.92-.87-6.4-.23-7.68.77-1.53,5.59-14.17,4.37-25.03-.37-3.32-1-8.87-1.62-9.25-.07-.02-.37.03-.56.06-.11.02-.22.04-.34.06-.78.12-.81.12-.57,2.76.06.62.12,1.34.18,2.18.3,4.45.75,15.11-1.47,17.96-2.04,2.62-5.71,4.98-5.87,5.08l-.11.06-6.42,2.81-1.23,2.41-.06.07ZM14.69,94.54h0,0Z"/>
        </g>
        <g>
          <path class="cls-4" d="M6.1,66.55c-4.08-8.53-.65-14.12,4.07-16.5s12.24,2.04,13.08,8.62c.83,6.58-.96,12.94-6.43,13.7-6.14.85-8.8-1.81-10.72-5.83Z"/>
          <path class="cls-2" d="M14.18,73.32c-5.07-.19-7.3-3.29-8.8-6.42-4.34-9.1-.56-15.03,4.43-17.55,2.28-1.15,5.19-.96,7.98.52,3.4,1.81,5.79,5.14,6.24,8.71,1.03,8.12-1.76,13.84-7.11,14.58-1,.14-1.91.19-2.74.15ZM6.82,66.21c1.82,3.8,4.19,6.17,9.89,5.38,5.35-.74,6.44-7.37,5.75-12.81-.39-3.06-2.46-5.94-5.41-7.51-2.29-1.22-4.73-1.41-6.52-.51-2.1,1.06-8.56,5.3-3.71,15.45h0Z"/>
        </g>
        <path class="cls-2" d="M13.18,87.42l-.36-7.44s-.21-1.53,3.05-1.6c3.94-.08,3.51-.56,4.16,3.74,0,0,1.26,6.89-.94,7.05-2.65.19-5.78.84-5.91-1.76Z"/>
        <g>
          <path class="cls-4" d="M12.04,76.92c-.77,2.62-2.21,7.24.4,7.27s4.71-.55,4.04,1.57-1.78,2.17-4.63,2.52-5.76-2.37-5.44-4.85.48-3.59,1.31-4.61"/>
          <path class="cls-2" d="M11.53,89.16c.14,0,.28-.02.42-.03l.37-.05c2.6-.32,4.17-.51,4.97-3.06.1-.31.39-1.25-.17-1.97-.63-.82-1.8-.78-3.29-.72-.45.02-.91.03-1.39.03-.32,0-.4-.11-.44-.17-.53-.7.3-4.04.68-5.42.09-.34-.11-.68-.44-.78h0c-.56-.16-1.15.18-1.28.74-.42,1.8-1.12,5.39-.32,6.46.29.38.83.84,1.79.85.52,0,1.02-.01,1.47-.03.67-.02,1.57-.06,1.86.06,0,.06,0,.2-.09.45-.46,1.47-.91,1.56-3.55,1.89l-.37.05c-1.14.14-2.43-.35-3.38-1.3-.8-.8-1.22-1.78-1.11-2.62.2-1.56.53-3.45.85-5.36.08-.45.18-.82-.18-1.11l-.11-.09c-.3-.24-.75-.15-.92.18-.67,1.33-1.01,3.59-1.33,6.17-.17,1.37.41,2.84,1.6,4.02,1.22,1.21,2.83,1.87,4.38,1.81Z"/>
        </g>
        <path class="cls-2" d="M11.2,67.48s-1.01.11-1.29-1.44.17-2.05.81-1.22.99,2.78.48,2.65Z"/>
        <path class="cls-2" d="M17.07,67.7s-1.01.11-1.29-1.44.17-2.05.81-1.22.99,2.78.48,2.65Z"/>
      </g>
      <g>
        <g>
          <path class="cls-4" d="M47.53,70.58s-2.98,3.51-3.63,8.22c0,0-.62,4.22,2.83,5.79s3.41.87,1.62,1.79-4.09,2.45-3.83,6.6c.33,5.09,1.41,7.3,2.72,7.22,3.34-.19,2.48-2.88,2.46-3.83-.05-3.6,1.76-3.68,1.76-3.68,0,0,.51,5.86,1.95,6.71s2.3.8,2.96-.99.12-6.19,2.66-6.95,4.34-3.3,4.34-6.79-1.82-10.52-.86-12.43,4.99-10.99,3.89-21.85c-.46-4.51-.4-11.36-2.28-11.07s-1.61,3.4-1.31,7.83.38,10.46-1.6,13.01-5.68,4.91-5.68,4.91l-6.67,2.92-1.32,2.58Z"/>
          <path class="cls-2" d="M47.16,100.98c-1.92,0-3.07-2.67-3.41-7.95-.27-4.22,1.91-6.07,3.95-7.18-.36-.15-.8-.33-1.3-.56-3.14-1.43-3.51-4.95-3.27-6.61.64-4.56,3.3-7.99,3.75-8.53l1.41-2.75,6.87-3c.44-.29,3.68-2.45,5.43-4.7,1.39-1.79,1.88-5.99,1.44-12.48l-.03-.43c-.31-4.55-.53-7.83,2-8.21.42-.06.82.05,1.16.32,1.17.94,1.45,3.76,1.76,8.3.08,1.12.15,2.18.25,3.14,1.17,11.64-3.44,21.22-3.97,22.27-.47.94,0,4.17.38,6.77.29,2,.57,3.89.57,5.31,0,3.69-1.92,6.64-4.89,7.52-1.29.38-1.53,2.38-1.73,4.15-.1.88-.2,1.7-.43,2.33-.25.67-.68,1.6-1.58,1.92-.88.31-1.8-.12-2.5-.53-1.29-.76-1.91-3.92-2.18-5.96-.22.45-.39,1.16-.37,2.25,0,.12.02.26.04.43.09.79.24,2.11-.59,3.09-.56.66-1.44,1.03-2.63,1.1-.04,0-.08,0-.12,0ZM48.12,71.08s-2.84,3.41-3.46,7.83c-.02.15-.48,3.68,2.38,4.99,1.02.46,1.71.72,2.17.89.61.22,1.09.4,1.1.99.01.58-.48.79-.85.94-.19.08-.45.19-.77.35-1.9.98-3.64,2.37-3.41,5.86.35,5.35,1.47,6.51,1.9,6.51,0,0,0,0,.01,0,.75-.04,1.27-.23,1.55-.55.4-.48.31-1.31.24-1.92-.02-.22-.04-.4-.05-.58-.06-4.3,2.39-4.45,2.5-4.46l.73-.03.06.73c.23,2.59.93,5.74,1.57,6.12.73.43,1.06.46,1.2.41.12-.04.36-.23.65-1,.17-.45.25-1.19.34-1.97.25-2.13.55-4.77,2.82-5.45,2.3-.68,3.79-3.06,3.79-6.05,0-1.31-.28-3.23-.55-5.09-.57-3.92-.87-6.4-.23-7.68.51-1.01,4.95-10.22,3.82-21.42-.1-.99-.18-2.11-.25-3.19-.16-2.35-.46-6.71-1.18-7.2-1.1.21-.9,3.16-.67,6.58l.03.43c.47,6.98-.11,11.4-1.76,13.53-2.04,2.62-5.71,4.98-5.87,5.08l-.11.06-6.42,2.81-1.23,2.41-.06.07Z"/>
        </g>
        <g>
          <path class="cls-4" d="M60.24,64.11c2.34-8.69-2.09-13.09-7.16-14.28s-11.57,4.45-11.12,10.67,3.44,11.67,8.93,11.22c6.17-.51,8.25-3.51,9.35-7.6Z"/>
          <path class="cls-2" d="M53.65,72.02c4.92-1.24,6.5-4.55,7.36-7.74,2.49-9.26-2.35-13.91-7.72-15.17-2.45-.58-5.26.21-7.7,2.16-2.97,2.37-4.67,5.94-4.42,9.3.56,7.67,4.39,12.33,9.76,11.88,1-.08,1.9-.23,2.71-.44ZM59.48,63.95c-1.04,3.87-2.91,6.55-8.63,7.02-5.37.45-7.72-5.4-8.1-10.55-.21-2.89,1.26-5.97,3.84-8.03,2.01-1.6,4.35-2.29,6.28-1.84,2.25.53,9.39,3.06,6.61,13.39h0Z"/>
        </g>
        <path class="cls-2" d="M50.08,79.22l-.36,7.44s-.21,1.53,3.05,1.6c3.94.08,3.51.56,4.16-3.74,0,0,1.26-6.89-.94-7.05-2.65-.19-5.78-.84-5.91,1.76Z"/>
        <path class="cls-2" d="M49.71,67.85s-1.01.11-1.29-1.44.17-2.05.81-1.22.99,2.78.48,2.65Z"/>
        <path class="cls-2" d="M53.97,67.85s-1.01.11-1.29-1.44.17-2.05.81-1.22.99,2.78.48,2.65Z"/>
        <g>
          <path class="cls-4" d="M45.74,75.08s-4.04,5.07-1.02,9.1,7.13,2.58,9.49.35-1.91-4.11-3.85-2.17-3.48-2.79-2.4-4.16"/>
          <path class="cls-2" d="M49.28,87.49c-.17,0-.34,0-.51-.02-1.8-.15-3.37-1.1-4.66-2.82-3.3-4.4.17-10.12.32-10.37l1.31.81-.65-.4.65.4c-.03.05-3.07,5.08-.4,8.63,1.02,1.35,2.22,2.1,3.56,2.21,1.55.14,3.34-.6,4.79-1.96.2-.19.52-.54.44-.84-.07-.28-.46-.57-.97-.71-.64-.18-1.61-.16-2.25.49-.85.85-1.89.91-2.72.17-.99-.88-1.59-2.95-1.25-4.42.12-.5.73-.7,1.13-.38l.23.18c.14.11.2.29.15.46-.23.75.09,2.41.76,3,.15.13.26.23.61-.11,1.11-1.11,2.67-1.18,3.75-.88,1.08.3,1.84.98,2.05,1.82.11.46.15,1.36-.88,2.33-1.64,1.54-3.6,2.4-5.47,2.4Z"/>
        </g>
      </g>
      <g>
        <g>
          <path class="cls-4" d="M101.41,64.77s3.53-4.77,2.8-9.58-1.44-11.43.1-12.25,2.22,3.12,3.26,10.52c1.54,11.01-2.27,16.33-3.54,18.24-.92,1.39,1,10.94-.09,13.68s-2.81,3.41-6.71,4.71-.72,9.35-1.56,10.22c-1.29,1.34-2.98-.65-4.12-3.57-1.69-4.33-2.55-6.15-2.4-5.42,0,0-.36.91-.28,2.42.13,2.59.56,6.42-.7,6.57-2,.24-3.72-4.14-4.54-7.49s.74-5.95,3.46-6.13-.19-6.11-.19-6.11c0,0-1.79-10.62,3.41-11.66s11.11-4.16,11.11-4.16Z"/>
          <path class="cls-2" d="M94.77,101.51c-.12,0-.25-.01-.37-.04-1.73-.35-2.98-2.94-3.57-4.45-.48-1.22-.87-2.2-1.18-2.96.01.24.03.5.04.76.19,3.11.37,6.04-1.44,6.26-.08,0-.17.01-.25.01-2.92,0-4.65-6.15-5.12-8.08-.5-2.03-.22-3.9.77-5.26.79-1.08,1.99-1.73,3.39-1.82.25-.02.3-.1.33-.16.41-.7-.29-3.06-1.16-4.84l-.05-.1-.02-.11c-.08-.46-1.85-11.37,4.02-12.54,4.56-.91,9.76-3.51,10.74-4.01.55-.8,3.17-4.88,2.56-8.87-1.79-11.83-.19-12.68.5-13.04.46-.25.95-.26,1.38-.04,1.34.68,1.89,3.25,3,11.14,1.54,11.01-2.16,16.53-3.56,18.61l-.11.16c-.28.51-.06,3.3.1,5.34.26,3.24.52,6.58-.12,8.2-1.21,3.05-3.19,3.82-7.19,5.16-1.86.62-1.59,3.52-1.12,6.7.26,1.78.41,2.77-.13,3.32-.42.43-.92.66-1.45.66ZM89.19,90.39c.54,0,.81.61,1.35,1.85.44,1.01,1.03,2.47,1.72,4.23.88,2.24,1.88,3.39,2.44,3.5.06.01.17.03.34-.11.05-.35-.1-1.35-.21-2.1-.43-2.91-1.08-7.31,2.16-8.39,3.9-1.3,5.29-1.87,6.24-4.26.51-1.29.24-4.74.02-7.51-.28-3.57-.41-5.48.15-6.31l.11-.16c1.3-1.95,4.77-7.12,3.31-17.54-.49-3.5-1.3-9.31-2.13-9.95,0,0,0,0,0,0-.05.03-1.29.94.3,11.45.76,5.07-2.79,9.95-2.95,10.15l-.1.14-.15.08c-.25.13-6.07,3.19-11.32,4.24-3.62.72-3.28,7.84-2.83,10.67.45.94,2.04,4.5,1.06,6.19-.22.39-.68.86-1.56.92-.94.06-1.72.48-2.25,1.2-.71.97-.9,2.42-.52,3.98.96,3.92,2.53,6.91,3.63,6.91h0c.4-.54.23-3.3.15-4.64-.02-.39-.05-.77-.06-1.13-.06-1.28.15-2.17.27-2.55-.01-.6.46-.77.56-.81.1-.03.19-.04.27-.04ZM95.02,99.91h0,0Z"/>
        </g>
        <g>
          <path class="cls-4" d="M85.7,62.13c-.72-3.78-.88-10.15,3.71-12s8.3-2.04,11.03,2.99,2.21,15.82-3.88,16.6c-6.48.83-9.86-2.39-10.85-7.59Z"/>
          <path class="cls-2" d="M94.62,70.61c-5.24,0-8.64-2.91-9.67-8.34h0c-.46-2.43-1.53-10.55,4.17-12.86,4.13-1.67,8.78-2.57,12,3.34,1.87,3.44,2.43,9.92.29,14.1-1.08,2.11-2.72,3.37-4.75,3.62-.71.09-1.38.14-2.04.14ZM86.46,61.98c1,5.27,4.46,7.68,10,6.97,1.52-.2,2.73-1.14,3.58-2.8,1.71-3.34,1.58-9.26-.27-12.67-2.49-4.58-5.7-4.41-10.07-2.65-4.62,1.87-3.65,9-3.24,11.15h0Z"/>
        </g>
        <path class="cls-2" d="M91.84,66.07s-1.01-.1-.97-1.67.58-1.98,1.04-1.03.42,2.92-.06,2.7Z"/>
        <path class="cls-2" d="M96.12,66.07s-1.01-.1-.97-1.67.58-1.98,1.04-1.03.42,2.92-.06,2.7Z"/>
        <path class="cls-2" d="M80.26,79.85s-2.63-3.39,1.54-3.59,15.79,0,15.79,0c0,0,1.72-.65,2.81,2.16s1.62,5.07,1.62,5.07c0,0,.01,1.01,2.1.65s2.45,1.72,1.63,1.91-1.63,1.19-5.17,1.09-13.29,0-15.26,0-3.34-4.67-5.06-7.28Z"/>
        <path class="cls-4" d="M89.5,82.08s.02-.03.03-.03c.29-.16.3-.36.12-.63-.11-.16.08-.36.29-.34.34.03.33.03.45-.29.03-.09.13-.19.22-.2.08-.01.21.06.27.13.17.21.24.22.48.1.09-.05.24-.06.31-.02.07.05.11.2.11.29-.02.26.03.32.29.4.09.03.21.11.23.19.02.08-.04.22-.11.28-.24.23-.24.22-.09.53.04.08.04.21,0,.28-.05.07-.17.13-.25.12-.34,0-.33-.01-.44.3-.03.09-.13.19-.22.21-.08.01-.21-.06-.27-.13-.17-.21-.24-.22-.48-.1-.09.05-.25.07-.32.02-.07-.05-.11-.2-.1-.3.02-.27-.01-.32-.29-.39-.22-.05-.31-.24-.2-.41ZM90.58,82.42c.24.16.57.1.73-.15.16-.23.09-.59-.15-.74-.25-.16-.57-.09-.73.15-.16.25-.1.56.15.73Z"/>
      </g>
      <g>
        <g>
          <path class="cls-4" d="M126.71,70.1s-2.98,3.51-3.63,8.22c0,0-.62,4.22,2.83,5.79s3.41.87,1.62,1.79-4.09,2.45-3.83,6.6c.33,5.09-.64,8.57,2.66,8.01s2.15-1.03,2.53-4.61,1.76-3.68,1.76-3.68c0,0-.3,6.57,1.14,7.42s3.42.94,4.08-.85-.19-7.04,2.36-7.79,4.34-3.3,4.34-6.79-1.4-8.32-.44-10.22,5.25-16.82,4.02-27.67-4.74-8.49-4.44-4.06-.43,16.14-2.41,18.69-4.57,3.66-4.57,3.66l-6.67,2.92-1.32,2.58Z"/>
          <path class="cls-2" d="M125.7,101.34c-.65,0-1.17-.17-1.59-.52-1.07-.9-1.08-2.65-1.1-5.07,0-.96-.01-2.04-.09-3.19-.27-4.22,1.91-6.07,3.95-7.18-.36-.15-.8-.33-1.3-.56-3.14-1.43-3.51-4.95-3.27-6.61.64-4.56,3.3-7.99,3.75-8.53l1.41-2.75,6.92-3.02s2.44-1.08,4.27-3.43c1.72-2.21,2.56-13.53,2.25-18.16-.17-2.5.72-4.41,2.11-4.53,1.88-.16,3.22,2.75,3.86,8.45,1.23,10.86-2.97,25.84-4.1,28.1-.48.96-.18,3.23.11,5.41.2,1.51.41,3.07.41,4.46,0,3.69-1.92,6.64-4.89,7.52-1.22.36-1.36,2.7-1.48,4.59-.07,1.1-.13,2.05-.38,2.73-.32.86-.91,1.47-1.72,1.76-1.02.36-2.32.17-3.47-.51-1.15-.68-1.48-3.3-1.54-5.55-.08.35-.15.75-.2,1.23-.09.88-.09,1.56-.09,2.12.01,2.11-.35,2.71-3.08,3.18-.28.05-.53.07-.77.07ZM127.29,70.6c-.05.06-2.84,3.42-3.46,7.83-.02.15-.48,3.68,2.38,4.99,1.02.46,1.71.72,2.17.89.61.22,1.09.4,1.1.99.01.58-.48.79-.85.94-.19.08-.45.19-.77.35-1.9.98-3.64,2.37-3.41,5.86.08,1.2.08,2.3.09,3.28.01,1.86.02,3.46.55,3.9.2.17.58.21,1.12.11.36-.06,1.47-.25,1.69-.5.11-.13.11-.6.11-1.15,0-.59,0-1.32.09-2.28.42-4.02,2.13-4.34,2.47-4.36l.86-.06-.04.86c-.14,3.15.22,6.35.76,6.72.76.45,1.59.59,2.17.39.37-.13.63-.41.79-.84.17-.47.23-1.35.28-2.29.15-2.36.33-5.3,2.58-5.97,2.3-.68,3.79-3.06,3.79-6.05,0-1.28-.2-2.79-.4-4.25-.34-2.53-.66-4.92.04-6.31.97-1.93,5.13-16.72,3.95-27.23-.75-6.6-2.18-7.09-2.2-7.09h0c-.19.02-.85.97-.72,2.9.29,4.35-.4,16.41-2.57,19.21-2.08,2.67-4.76,3.85-4.87,3.9l-6.42,2.8-1.23,2.41-.06.07Z"/>
        </g>
        <g>
          <path class="cls-4" d="M122.86,64.83c-3.75-7.85-.6-12.98,3.75-15.17s11.26,1.88,12.03,7.93-.88,11.9-5.91,12.6c-5.65.78-8.09-1.67-9.86-5.36Z"/>
          <path class="cls-2" d="M130.29,71.06c-4.67-.18-6.71-3.02-8.09-5.91-4-8.37-.51-13.82,4.07-16.14,2.1-1.06,4.77-.88,7.34.48,3.12,1.66,5.32,4.73,5.74,8.01.95,7.47-1.62,12.73-6.54,13.41-.92.13-1.76.17-2.52.14ZM123.51,64.52c1.67,3.5,3.86,5.68,9.1,4.95,4.92-.68,5.93-6.77,5.29-11.79-.36-2.82-2.26-5.46-4.98-6.91-2.11-1.12-4.35-1.3-6-.47-1.93.97-7.87,4.87-3.42,14.21h0Z"/>
        </g>
        <path class="cls-2" d="M129.16,85.24l-.36-7.44s-.21-1.53,3.05-1.6c3.94-.08,3.51-.56,4.16,3.74,0,0,1.26,6.89-.94,7.05-2.65.19-5.78.84-5.91-1.76Z"/>
        <g>
          <path class="cls-4" d="M127.02,75.83c-.63,2.52-1.82,6.97.37,7.01s3.94-.51,3.39,1.54-1.48,2.08-3.86,2.41-4.83-2.32-4.58-4.71.38-3.46,1.07-4.44"/>
          <path class="cls-2" d="M126.66,87.63c.12,0,.24-.01.35-.03l.31-.04c2.18-.3,3.49-.47,4.14-2.93.08-.3.32-1.2-.15-1.9-.53-.79-1.51-.76-2.75-.71-.37.01-.76.03-1.16.02-.27,0-.34-.11-.37-.16-.44-.68.23-3.89.54-5.22.07-.32-.09-.66-.37-.75h0c-.47-.16-.96.16-1.07.71-.34,1.73-.91,5.19-.24,6.23.24.37.7.81,1.5.83.44,0,.86,0,1.23-.02.56-.02,1.32-.05,1.55.07,0,.06,0,.19-.07.43-.38,1.41-.76,1.5-2.97,1.8l-.31.04c-.95.13-2.04-.35-2.84-1.27-.68-.77-.93-1.71-.94-2.53-.02-2.02.77-3.29,1.03-5.13.06-.44-.2-.83-.5-1.11l-.09-.09c-.25-.23-.62-.15-.77.17-.56,1.28-.82,3.46-1.09,5.94-.14,1.32.35,2.74,1.36,3.88,1.03,1.17,2.38,1.82,3.67,1.77Z"/>
        </g>
        <path class="cls-2" d="M128.08,66.13s-1.01.11-1.29-1.44.17-2.05.81-1.22.99,2.78.48,2.65Z"/>
        <path class="cls-2" d="M133.15,66.13s-1.01.11-1.29-1.44.17-2.05.81-1.22.99,2.78.48,2.65Z"/>
      </g>
    </g>
  </g>
</svg>