<?xml version="1.0" encoding="UTF-8"?>
<svg id="Layer_2" data-name="Layer 2" xmlns="http://www.w3.org/2000/svg" viewBox="0 0 402.16 274.15">
  <defs>
    <style>
      .cls-1 {
        fill: #00c7b5;
      }

      .cls-1, .cls-2, .cls-3, .cls-4 {
        stroke-width: 0px;
      }

      .cls-2 {
        fill: #6d6e70;
      }

      .cls-5 {
        stroke: #6d6e70;
        stroke-miterlimit: 10;
        stroke-width: 4px;
      }

      .cls-5, .cls-4 {
        fill: #d0d2d3;
      }

      .cls-3 {
        fill: #fff;
      }
    </style>
  </defs>
  <g id="Layer_7" data-name="Layer 7">
    <g>
      <path class="cls-3" d="M14.62,77.42L36.88,15.58l18.87-1.59-21.6,61.05,39.76-3.35,1.35,16.07-59.36,5-1.29-15.34ZM48.41,51.28l16.68-1.4,4.39,52.12-16.68,1.4-4.39-52.12Z"/>
      <polygon class="cls-3" points="43.67 114.2 42.52 100.56 6.78 103.57 4.47 76.09 29.65 6.15 70.35 2.73 56.98 40.52 74.22 39.07 76.1 61.47 83.05 60.89 86.07 96.89 79.13 97.48 80.28 111.12 43.67 114.2"/>
    </g>
    <g>
      <path class="cls-3" d="M133.83,99.1c-4.5-4.44-6.75-10.6-6.75-18.46v-40.21c0-7.95,2.26-14.12,6.78-18.53,4.52-4.4,11.08-6.6,19.68-6.6s15.21,2.19,19.71,6.57,6.75,10.57,6.75,18.56v40.21c0,7.95-2.26,14.12-6.78,18.53-4.52,4.4-11.08,6.6-19.68,6.6s-15.21-2.22-19.71-6.66ZM160.97,86.27c1.58-2.29,2.37-5.59,2.37-9.89v-31.7c0-4.3-.79-7.59-2.37-9.89s-4.06-3.44-7.42-3.44-5.84,1.15-7.42,3.44-2.37,5.59-2.37,9.89v31.7c0,4.3.79,7.6,2.37,9.89,1.58,2.29,4.06,3.44,7.42,3.44s5.84-1.15,7.42-3.44Z"/>
      <path class="cls-3" d="M153.55,115.76c-11.32,0-20.32-3.21-26.73-9.54-6.46-6.37-9.73-14.98-9.73-25.58v-40.21c0-10.71,3.3-19.36,9.81-25.69,6.43-6.26,15.4-9.43,26.66-9.43s20.27,3.16,26.69,9.4c6.49,6.31,9.78,14.97,9.78,25.72v40.21c0,10.71-3.3,19.36-9.81,25.69-6.43,6.26-15.4,9.43-26.66,9.43Z"/>
    </g>
    <g>
      <path class="cls-3" d="M241.81,86.54l35.9-34.63c1.62-1.54,2.97-3.2,4.05-4.96,1.07-1.76,1.78-3.47,2.11-5.1l.03-.12c.5-2.42.18-4.42-.96-6.02-1.13-1.6-2.99-2.66-5.58-3.19-2.51-.52-4.73-.02-6.65,1.48s-3.4,3.9-4.42,7.19v.06s-15.58-3.19-15.58-3.19v-.06c1.49-5.5,3.68-10.04,6.59-13.63s6.35-6.07,10.33-7.45c3.98-1.38,8.29-1.6,12.95-.64,5.02,1.03,9.13,2.82,12.32,5.37,3.19,2.55,5.36,5.76,6.51,9.62,1.15,3.86,1.22,8.25.22,13.17v.06c-.84,4.05-2.31,7.95-4.4,11.68-2.09,3.73-4.62,6.98-7.57,9.75l-25.52,23.7,27.53,5.64-3.32,16.22-47.63-9.76,3.11-15.17Z"/>
      <path class="cls-3" d="M294.12,123.28l-67.23-13.78,5.74-28,31.58-30.46-25.35-5.2,2.2-10.43c1.83-6.84,4.68-12.67,8.47-17.34,4.08-5.03,9.07-8.6,14.81-10.6,5.69-1.97,11.82-2.31,18.24-.99,6.56,1.34,12.13,3.82,16.55,7.36,4.8,3.84,8.11,8.74,9.85,14.58,1.62,5.44,1.76,11.51.43,18.03-1.05,5.11-2.88,10.01-5.47,14.62-2.58,4.61-5.77,8.7-9.45,12.15l-11.31,10.51,18.29,3.75-7.34,35.81Z"/>
    </g>
    <g>
      <path class="cls-3" d="M356.12,102.68c-4.17-1.43-7.58-3.95-10.23-7.56-2.66-3.61-4.44-8.2-5.37-13.77v-.06c-.53-3.16-.7-6.57-.5-10.22.2-3.65.72-7.38,1.57-11.18.14-.64.29-1.28.45-1.93.16-.64.33-1.27.52-1.88l11.49-40.53,18.62-3.08-13.81,47.03-4.5-1.48c.69-2.05,1.91-3.75,3.66-5.11,1.75-1.36,3.9-2.25,6.47-2.68,4.8-.8,9.08-.45,12.82,1.02,3.74,1.48,6.83,4.02,9.25,7.63,2.43,3.61,4.1,8.16,5.01,13.64v.06c.94,5.61.73,10.58-.61,14.91-1.34,4.34-3.75,7.86-7.23,10.58-3.48,2.72-7.92,4.52-13.33,5.42-5.37.89-10.13.62-14.3-.81ZM374.13,83.96c1.3-1.96,1.69-4.51,1.17-7.63v-.06c-.61-3.6-1.86-6.25-3.76-7.92s-4.32-2.28-7.24-1.79c-2.88.48-4.95,1.84-6.21,4.08-1.25,2.25-1.58,5.15-.99,8.71v.06c.53,3.12,1.72,5.39,3.58,6.81,1.86,1.42,4.23,1.89,7.12,1.42,2.92-.48,5.03-1.71,6.33-3.67Z"/>
      <path class="cls-3" d="M364.52,114c-4.14,0-8.03-.62-11.64-1.86h0c-6.11-2.1-11.17-5.83-15.04-11.1-3.58-4.87-6-10.95-7.17-18.06-.65-3.92-.85-8.09-.62-12.46.23-4.19.83-8.5,1.8-12.83.15-.69.32-1.43.51-2.17.2-.78.41-1.54.63-2.28l13.19-46.53,40.59-6.72-11.83,40.28c2.1.35,4.11.91,6.05,1.68,5.64,2.23,10.31,6.05,13.88,11.35,3.22,4.79,5.44,10.71,6.58,17.59l.02.1c1.17,7.08.86,13.64-.93,19.46-1.95,6.31-5.53,11.53-10.63,15.51-4.79,3.74-10.79,6.23-17.84,7.4-2.59.43-5.1.64-7.53.64Z"/>
    </g>
    <path class="cls-1" d="M14.62,77.42L36.88,15.58l18.87-1.59-21.6,61.05,39.76-3.35,1.35,16.07-59.36,5-1.29-15.34ZM48.41,51.28l16.68-1.4,4.39,52.12-16.68,1.4-4.39-52.12Z"/>
    <path class="cls-1" d="M133.83,99.1c-4.5-4.44-6.75-10.6-6.75-18.46v-40.21c0-7.95,2.26-14.12,6.78-18.53,4.52-4.4,11.08-6.6,19.68-6.6s15.21,2.19,19.71,6.57,6.75,10.57,6.75,18.56v40.21c0,7.95-2.26,14.12-6.78,18.53-4.52,4.4-11.08,6.6-19.68,6.6s-15.21-2.22-19.71-6.66ZM160.97,86.27c1.58-2.29,2.37-5.59,2.37-9.89v-31.7c0-4.3-.79-7.59-2.37-9.89s-4.06-3.44-7.42-3.44-5.84,1.15-7.42,3.44-2.37,5.59-2.37,9.89v31.7c0,4.3.79,7.6,2.37,9.89,1.58,2.29,4.06,3.44,7.42,3.44s5.84-1.15,7.42-3.44Z"/>
    <path class="cls-1" d="M241.81,86.54l35.9-34.63c1.62-1.54,2.97-3.2,4.05-4.96,1.07-1.76,1.78-3.47,2.11-5.1l.03-.12c.5-2.42.18-4.42-.96-6.02-1.13-1.6-2.99-2.66-5.58-3.19-2.51-.52-4.73-.02-6.65,1.48s-3.4,3.9-4.42,7.19v.06s-15.58-3.19-15.58-3.19v-.06c1.49-5.5,3.68-10.04,6.59-13.63s6.35-6.07,10.33-7.45c3.98-1.38,8.29-1.6,12.95-.64,5.02,1.03,9.13,2.82,12.32,5.37,3.19,2.55,5.36,5.76,6.51,9.62,1.15,3.86,1.22,8.25.22,13.17v.06c-.84,4.05-2.31,7.95-4.4,11.68-2.09,3.73-4.62,6.98-7.57,9.75l-25.52,23.7,27.53,5.64-3.32,16.22-47.63-9.76,3.11-15.17Z"/>
    <path class="cls-1" d="M356.12,102.68c-4.17-1.43-7.58-3.95-10.23-7.56-2.66-3.61-4.44-8.2-5.37-13.77v-.06c-.53-3.16-.7-6.57-.5-10.22.2-3.65.72-7.38,1.57-11.18.14-.64.29-1.28.45-1.93.16-.64.33-1.27.52-1.88l11.49-40.53,18.62-3.08-13.81,47.03-4.5-1.48c.69-2.05,1.91-3.75,3.66-5.11,1.75-1.36,3.9-2.25,6.47-2.68,4.8-.8,9.08-.45,12.82,1.02,3.74,1.48,6.83,4.02,9.25,7.63,2.43,3.61,4.1,8.16,5.01,13.64v.06c.94,5.61.73,10.58-.61,14.91-1.34,4.34-3.75,7.86-7.23,10.58-3.48,2.72-7.92,4.52-13.33,5.42-5.37.89-10.13.62-14.3-.81ZM374.13,83.96c1.3-1.96,1.69-4.51,1.17-7.63v-.06c-.61-3.6-1.86-6.25-3.76-7.92s-4.32-2.28-7.24-1.79c-2.88.48-4.95,1.84-6.21,4.08-1.25,2.25-1.58,5.15-.99,8.71v.06c.53,3.12,1.72,5.39,3.58,6.81,1.86,1.42,4.23,1.89,7.12,1.42,2.92-.48,5.03-1.71,6.33-3.67Z"/>
  </g>
  <g id="guyts">
    <g>
      <path class="cls-5" d="M18.6,189.51s-7.74,9.12-9.45,21.37c0,0-1.61,10.98,7.35,15.07s8.86,2.27,4.21,4.66-10.65,6.36-9.95,17.16c.86,13.23-1.69,25.73,6.88,24.26s5.62-6.13,6.6-15.44,4.57-9.56,4.57-9.56c0,0-.77,21.08,2.96,23.28s8.88,2.45,10.6-2.21-.49-22.3,6.13-24.26,11.27-8.58,11.27-17.65-4.73-27.36-2.24-32.31,14.74-38,11.56-66.2-3.92-26.24-8.82-25.51-3.5,3.43-2.73,14.95,1.75,38.72-3.39,45.34-14.76,12.76-14.76,12.76l-17.35,7.58-3.43,6.7Z"/>
      <g>
        <path class="cls-4" d="M6.81,176.22c-10.6-22.19-1.69-36.7,10.59-42.9,12.28-6.2,31.83,5.31,34,22.43,2.17,17.12-2.5,33.65-16.72,35.62-15.97,2.21-22.88-4.71-27.87-15.15Z"/>
        <path class="cls-2" d="M27.82,193.81c-13.19-.5-18.98-8.55-22.87-16.7-11.3-23.66-1.46-39.08,11.52-45.63,5.93-2.99,13.49-2.5,20.74,1.36,8.83,4.7,15.05,13.38,16.23,22.65,2.68,21.11-4.58,35.99-18.48,37.92-2.59.36-4.96.48-7.13.4ZM8.67,175.33c4.72,9.89,10.9,16.05,25.72,13.99,13.92-1.93,16.76-19.15,14.96-33.32-1.01-7.96-6.4-15.45-14.07-19.53-5.96-3.17-12.3-3.67-16.95-1.32-5.45,2.75-22.26,13.78-9.66,40.17h0Z"/>
      </g>
      <path class="cls-2" d="M25.22,230.47l-.94-19.33s-.55-3.97,7.93-4.15c10.24-.22,9.13-1.46,10.82,9.73,0,0,3.27,17.91-2.44,18.33-6.89.5-15.04,2.19-15.37-4.58Z"/>
      <g>
        <path class="cls-4" d="M22.25,203.18c-2.01,6.82-5.76,18.83,1.04,18.9,6.8.06,12.24-1.43,10.51,4.1s-4.64,5.63-12.04,6.55-14.97-6.17-14.16-12.62,1.24-9.35,3.4-12"/>
        <path class="cls-2" d="M20.93,235c.37-.01.73-.04,1.1-.09l.96-.12c6.76-.83,10.84-1.33,12.92-7.96.25-.8,1.02-3.24-.43-5.13-1.64-2.13-4.69-2.02-8.54-1.88-1.16.04-2.36.08-3.62.07-.83,0-1.04-.29-1.14-.43-1.37-1.83.79-10.5,1.76-14.09.24-.88-.27-1.77-1.15-2.03h0c-1.46-.42-2.98.46-3.33,1.93-1.09,4.67-2.92,14.02-.84,16.8.74.99,2.15,2.18,4.65,2.2,1.35.01,2.66-.03,3.82-.08,1.74-.06,4.09-.15,4.82.17,0,.16-.02.52-.22,1.16-1.2,3.82-2.37,4.06-9.24,4.91l-.97.12c-2.96.37-6.33-.92-8.8-3.37-2.09-2.07-3.17-4.62-2.89-6.8.51-4.05,1.37-8.96,2.21-13.94.2-1.18.47-2.14-.46-2.89l-.29-.23c-.77-.62-1.94-.4-2.38.47-1.75,3.45-2.62,9.35-3.47,16.05-.45,3.57,1.06,7.38,4.15,10.45,3.17,3.15,7.35,4.86,11.38,4.71Z"/>
      </g>
      <path class="cls-2" d="M20.06,178.62s-2.63.27-3.35-3.74.44-5.34,2.11-3.16,2.58,7.23,1.24,6.9Z"/>
      <path class="cls-2" d="M35.34,179.2s-2.63.27-3.35-3.74.44-5.34,2.11-3.16,2.58,7.23,1.24,6.9Z"/>
    </g>
    <g>
      <path class="cls-5" d="M113.5,181.73s-7.74,9.12-9.45,21.37c0,0-1.61,10.98,7.35,15.07s8.86,2.27,4.21,4.66-10.65,6.36-9.95,17.16c.86,13.23,3.66,18.98,7.07,18.79,8.68-.49,6.44-7.49,6.41-9.96-.13-9.36,4.57-9.56,4.57-9.56,0,0,1.33,15.25,5.07,17.46s5.99,2.08,7.7-2.58.3-16.1,6.92-18.06,11.27-8.58,11.27-17.65-4.73-27.36-2.24-32.31,12.97-28.57,10.13-56.81c-1.18-11.74-1.04-29.53-5.94-28.79s-4.19,8.84-3.42,20.36.98,27.21-4.17,33.82-14.76,12.76-14.76,12.76l-17.35,7.58-3.43,6.7Z"/>
      <g>
        <path class="cls-4" d="M146.55,164.9c6.08-22.59-5.43-34.03-18.62-37.13s-30.09,11.57-28.91,27.73c1.18,16.16,8.93,30.35,23.22,29.16,16.04-1.33,21.46-9.14,24.32-19.76Z"/>
        <path class="cls-2" d="M129.4,185.46c12.8-3.23,16.91-11.84,19.14-20.14,6.48-24.08-6.11-36.16-20.06-39.44-6.38-1.5-13.67.55-20.02,5.61-7.73,6.17-12.13,15.44-11.49,24.19,1.46,19.93,11.42,32.06,25.38,30.9,2.61-.22,4.95-.6,7.05-1.13ZM144.56,164.48c-2.71,10.06-7.56,17.02-22.45,18.25-13.97,1.16-20.07-14.05-21.05-27.42-.55-7.52,3.28-15.52,9.99-20.88,5.22-4.17,11.32-5.95,16.32-4.78,5.86,1.38,24.42,7.96,17.19,34.82h0Z"/>
      </g>
      <path class="cls-2" d="M120.12,204.19l-.94,19.33s-.55,3.97,7.93,4.15c10.24.22,9.13,1.46,10.82-9.73,0,0,3.27-17.91-2.44-18.33-6.89-.5-15.04-2.19-15.37,4.58Z"/>
      <path class="cls-2" d="M119.17,174.64s-2.63.27-3.35-3.74.44-5.34,2.11-3.16,2.58,7.23,1.24,6.9Z"/>
      <path class="cls-2" d="M130.24,174.64s-2.63.27-3.35-3.74.44-5.34,2.11-3.16,2.58,7.23,1.24,6.9Z"/>
      <g>
        <path class="cls-4" d="M108.84,193.44s-10.5,13.18-2.65,23.65,18.53,6.7,24.69.91-4.97-10.69-10.01-5.65-9.05-7.27-6.23-10.82"/>
        <path class="cls-2" d="M118.05,225.69c-.44,0-.88-.02-1.32-.06-4.69-.4-8.77-2.87-12.13-7.34-8.58-11.43.45-26.33.84-26.96l3.4,2.1-1.7-1.05,1.7,1.05c-.08.13-7.98,13.22-1.05,22.45,2.64,3.52,5.76,5.46,9.27,5.76,4.03.35,8.68-1.56,12.45-5.11.51-.48,1.34-1.41,1.15-2.2-.18-.74-1.2-1.48-2.52-1.85-1.65-.46-4.18-.41-5.85,1.26-2.2,2.2-4.91,2.38-7.07.45-2.56-2.28-4.13-7.68-3.25-11.49.3-1.31,1.89-1.83,2.94-1l.6.48c.36.29.52.76.39,1.21-.59,1.96.24,6.26,1.98,7.81.38.34.68.6,1.58-.29,2.89-2.89,6.93-3.07,9.75-2.29,2.8.78,4.79,2.55,5.33,4.74.29,1.18.38,3.55-2.29,6.07-4.26,4.01-9.37,6.24-14.21,6.24Z"/>
      </g>
    </g>
    <g>
      <path class="cls-5" d="M260.42,159.85s9.18-12.41,7.29-24.91-3.74-29.73.26-31.85,5.78,8.12,8.47,27.37c4.01,28.62-5.9,42.47-9.2,47.42-2.4,3.6,2.6,28.44-.24,35.57s-7.31,8.87-17.46,12.25-1.87,24.32-4.06,26.58c-3.36,3.48-7.75-1.68-10.72-9.29-4.39-11.26-6.62-15.98-6.25-14.08,0,0-.93,2.36-.74,6.29.33,6.74,1.45,16.69-1.83,17.08-5.19.62-9.67-10.77-11.8-19.47s1.92-15.46,9-15.93-.5-15.88-.5-15.88c0,0-4.65-27.61,8.88-30.32s28.89-10.82,28.89-10.82Z"/>
      <path class="cls-5" d="M219.58,152.97c-1.87-9.84-2.29-26.39,9.64-31.21s21.57-5.32,28.68,7.78,5.74,41.13-10.1,43.16c-16.84,2.16-25.65-6.2-28.22-19.73Z"/>
      <path class="cls-2" d="M235.53,163.22s-2.63-.26-2.53-4.33,1.5-5.14,2.7-2.67,1.08,7.6-.17,7.01Z"/>
      <path class="cls-2" d="M246.67,163.22s-2.63-.26-2.53-4.33,1.5-5.14,2.7-2.67,1.08,7.6-.17,7.01Z"/>
      <path class="cls-2" d="M205.43,199.06s-6.84-8.82,4.01-9.34,41.05,0,41.05,0c0,0,4.48-1.7,7.31,5.61s4.21,13.18,4.21,13.18c0,0,.04,2.63,5.46,1.68s6.37,4.48,4.25,4.95-4.25,3.1-13.45,2.85-34.56,0-39.69,0-8.67-12.14-13.16-18.93Z"/>
      <path class="cls-4" d="M229.45,204.85s.04-.07.07-.09c.77-.42.78-.93.31-1.63-.28-.42.2-.94.74-.89.88.08.86.07,1.16-.76.08-.23.35-.5.57-.53.21-.03.54.15.69.34.44.53.64.57,1.25.25.23-.12.63-.16.82-.04.19.12.3.51.28.77-.04.67.07.84.76,1.04.24.07.54.29.59.5.05.22-.1.56-.28.74-.63.6-.63.57-.23,1.37.1.2.09.55-.02.72-.12.18-.43.33-.66.32-.89-.02-.86-.03-1.16.77-.08.23-.35.5-.57.54-.21.04-.54-.15-.69-.34-.45-.54-.63-.57-1.25-.25-.24.12-.64.19-.82.06-.19-.12-.28-.52-.27-.78.04-.7-.03-.84-.75-1.02-.57-.14-.81-.62-.53-1.07ZM232.28,205.73c.63.42,1.47.26,1.91-.38.41-.6.23-1.52-.39-1.92-.64-.41-1.49-.24-1.91.4-.43.64-.26,1.47.39,1.9Z"/>
    </g>
    <g>
      <path class="cls-5" d="M326.21,180.48s-7.74,9.12-9.45,21.37c0,0-1.61,10.98,7.35,15.07s8.86,2.27,4.21,4.66-10.65,6.36-9.95,17.16c.86,13.23-1.66,22.29,6.91,20.82s5.59-2.68,6.57-12,4.57-9.56,4.57-9.56c0,0-.77,17.07,2.96,19.28s8.88,2.45,10.6-2.21-.49-18.3,6.13-20.26,11.27-8.58,11.27-17.65-3.63-21.62-1.15-26.57,13.65-43.73,10.46-71.94-12.33-22.08-11.56-10.56-1.13,41.97-6.28,48.59-11.88,9.52-11.88,9.52l-17.35,7.58-3.43,6.7Z"/>
      <g>
        <path class="cls-4" d="M316.19,166.79c-9.75-20.41-1.56-33.75,9.74-39.45s29.27,4.88,31.27,20.63c2,15.75-2.3,30.95-15.38,32.76-14.69,2.04-21.04-4.33-25.63-13.93Z"/>
        <path class="cls-2" d="M335.52,182.96c-12.13-.46-17.46-7.86-21.04-15.36-10.39-21.76-1.34-35.94,10.6-41.96,5.46-2.75,12.41-2.3,19.08,1.25,8.13,4.32,13.84,12.3,14.92,20.83,2.46,19.41-4.21,33.1-17,34.88-2.39.33-4.57.44-6.56.37ZM317.9,165.97c4.34,9.09,10.03,14.76,23.66,12.87,12.8-1.77,15.41-17.62,13.76-30.64-.93-7.33-5.89-14.21-12.94-17.96-5.49-2.92-11.31-3.37-15.59-1.21-5.01,2.53-20.48,12.67-8.88,36.94h0Z"/>
      </g>
      <path class="cls-2" d="M332.59,219.84l-.94-19.33s-.55-3.97,7.93-4.15c10.24-.22,9.13-1.46,10.82,9.73,0,0,3.27,17.91-2.44,18.33-6.89.5-15.04,2.19-15.37-4.58Z"/>
      <g>
        <path class="cls-4" d="M327.03,195.38c-1.65,6.56-4.73,18.14.96,18.23,5.69.09,10.24-1.32,8.81,4-1.42,5.32-3.86,5.41-10.05,6.26s-12.56-6.03-11.91-12.24.99-9.01,2.79-11.55"/>
        <path class="cls-2" d="M326.08,226.06c.31-.01.61-.04.92-.08l.8-.11c5.66-.77,9.07-1.23,10.78-7.62.21-.77.84-3.12-.39-4.95-1.38-2.06-3.93-1.97-7.16-1.86-.97.03-1.98.07-3.03.05-.69-.01-.87-.29-.96-.42-1.15-1.77.61-10.12,1.41-13.58.19-.84-.24-1.71-.97-1.96h0c-1.23-.42-2.49.43-2.77,1.85-.89,4.5-2.38,13.51-.62,16.2.63.96,1.81,2.11,3.9,2.15,1.13.02,2.23-.02,3.2-.05,1.46-.05,3.42-.12,4.04.19,0,.16-.02.5-.18,1.12-.98,3.67-1.96,3.91-7.71,4.69l-.81.11c-2.48.34-5.3-.92-7.38-3.29-1.76-2.01-2.43-4.46-2.45-6.58-.06-5.26,2.01-8.55,2.68-13.35.16-1.13-.51-2.15-1.3-2.87l-.24-.23c-.65-.6-1.62-.4-1.99.45-1.45,3.32-2.15,9-2.82,15.46-.36,3.44.92,7.13,3.52,10.1,2.67,3.05,6.18,4.72,9.55,4.6Z"/>
      </g>
      <path class="cls-2" d="M329.77,170.17s-2.63.27-3.35-3.74.44-5.34,2.11-3.16,2.58,7.23,1.24,6.9Z"/>
      <path class="cls-2" d="M342.95,170.17s-2.63.27-3.35-3.74.44-5.34,2.11-3.16,2.58,7.23,1.24,6.9Z"/>
    </g>
  </g>
</svg>