<?xml version="1.0" encoding="UTF-8"?><svg id="Layer_2" xmlns="http://www.w3.org/2000/svg" xmlns:xlink="http://www.w3.org/1999/xlink" viewBox="0 0 269.34 267.03"><defs><style>.cls-1{fill:#58595b;}.cls-1,.cls-2,.cls-3,.cls-4,.cls-5,.cls-6,.cls-7,.cls-8,.cls-9,.cls-10{stroke-width:0px;}.cls-2{fill:#4a5aa8;}.cls-3{fill:#f7941d;}.cls-4{fill:none;}.cls-11{clip-path:url(#clippath-1);}.cls-12{stroke:#be1e2d;stroke-miterlimit:10;stroke-width:2px;}.cls-12,.cls-5{fill:#be1e2d;}.cls-6{fill:#6d6e71;}.cls-13{clip-path:url(#clippath);}.cls-7{fill:#2a367d;}.cls-8{fill:#fff;}.cls-9{fill:#f15a29;}.cls-10{fill:#d1d3d4;}</style><clipPath id="clippath"><path class="cls-4" d="M156.98,212.55c-11.62-3.96-16.37-4.37-10.1-21.01s16.65-42.3,22.65-54.03,20.09-3.76,36.29,1.64c17.39,5.79,40.93,16.65,53.49,22.65s8.32,13.64,1.3,34.38-5.76,47.03-24.76,42.57c-22.1-5.18-78.87-26.2-78.87-26.2Z"/></clipPath><clipPath id="clippath-1"><path class="cls-4" d="M156.98,212.55c-11.62-3.96-16.37-4.37-10.1-21.01s16.65-42.3,22.65-54.03,20.09-3.76,36.29,1.64c17.39,5.79,40.93,16.65,53.49,22.65s8.32,13.64,1.3,34.38-5.76,47.03-24.76,42.57c-22.1-5.18-78.87-26.2-78.87-26.2Z"/></clipPath></defs><g id="broken_bot"><g id="broken_bot-2"><path class="cls-2" d="M95.89,116.27c-10.37,4.45-65.49,25.23-76.41,27.65s-17.95,8.66-17.46,22.28-.24,30.12,9.94,37.63,75.19,41.72,96.78,53.36,37.84,8.97,57.73.97,37.6-34.2,55.3-45.6,20.86-13.58,20.13-25.47,3.4-17.71-14.07-25.71-94.77-38.32-105.84-45.12-19.9-2.66-26.11,0Z"/><path class="cls-7" d="M137.04,267.03c-9.2,0-18.63-2.36-29.24-8.08-4.17-2.25-9.96-5.34-16.67-8.92-28.68-15.31-72.02-38.44-80.35-44.59C.86,198.12.48,183.48.15,170.56c-.04-1.45-.07-2.89-.12-4.29-.48-13.4,5.75-21.35,19.03-24.3,10.55-2.34,65.35-22.95,76.05-27.54l.51-.22c6.28-2.7,15.78-6.79,27.43.35,6.73,4.13,39.97,17.76,66.68,28.71,17.32,7.1,32.28,13.24,38.95,16.29,14.68,6.73,15.31,12.28,15.16,21.5-.03,1.85-.06,3.77.07,5.91.81,13.2-3.39,15.9-21.05,27.27-7.27,4.68-14.52,11.89-22.19,19.53-10.6,10.55-21.55,21.46-33.45,26.24-10.56,4.25-20.23,7.01-30.19,7.01ZM109.72,114.55c-4.78,0-8.9,1.78-12.52,3.33l-.52.22c-10.11,4.34-65.42,25.25-76.76,27.77-11.25,2.5-16.3,8.94-15.9,20.25.05,1.42.09,2.86.13,4.33.31,12,.66,25.61,9.01,31.77,8.1,5.98,53.02,29.96,79.86,44.28,6.71,3.58,12.51,6.68,16.68,8.93,20.8,11.22,36.3,8.82,56.03.88,11.14-4.48,21.81-15.1,32.12-25.37,7.82-7.79,15.22-15.15,22.85-20.06,17.92-11.54,19.86-13.15,19.22-23.67-.14-2.29-.11-4.38-.08-6.22.13-7.87.19-11.83-12.83-17.8-6.59-3.02-21.52-9.14-38.8-16.23-28.24-11.58-60.25-24.7-67.26-29-4.11-2.52-7.84-3.42-11.24-3.42Z"/><path class="cls-10" d="M25.55,152.86s49.72-15.95,62.82-22.01,12.61-9.22,23.53-4.85,81.98,34.2,91.93,35.41,13.58,2.91,1.46,10.92-46.57,29.59-52.88,33.23-13.1,9.94-40.02-.97-77.38-42.21-83.2-45.12-8.36-5.08-3.64-6.61Z"/><path class="cls-7" d="M137.06,212.67c-5.93,0-13.96-1.58-25.43-6.23-20.48-8.3-54.12-28.1-72.19-38.74-5.68-3.34-9.78-5.76-11.15-6.44-4.7-2.35-7.39-4.2-7.2-6.72.18-2.4,2.93-3.29,3.84-3.58h0c.5-.16,49.76-15.98,62.59-21.93,3.19-1.48,5.58-2.79,7.5-3.84,6.48-3.56,8.94-4.52,17.61-1.05,1.88.75,5.55,2.26,10.39,4.25,21.87,9,73.08,30.06,81.04,31.03,5.45.67,10.03,1.47,10.78,4.65.63,2.7-1.74,5.48-8.46,9.92-12.22,8.06-46.56,29.59-52.98,33.29-.46.27-.92.54-1.39.83-3.41,2.06-7.53,4.55-14.95,4.55ZM25.54,154.99c.6.5,1.86,1.34,4.55,2.69,1.48.74,5.42,3.06,11.39,6.57,17.98,10.58,51.46,30.29,71.67,38.48,23.98,9.72,31.09,5.42,36.81,1.96.5-.3.98-.59,1.47-.87,6.38-3.68,40.6-25.13,52.78-33.17,5.34-3.52,6.47-5.13,6.7-5.63-.5-.38-2.15-1-7.3-1.63-8.5-1.04-58.2-21.48-82.08-31.31-4.82-1.98-8.47-3.49-10.35-4.24-7.33-2.93-8.51-2.28-14.2.84-1.98,1.08-4.43,2.43-7.75,3.97-13.06,6.05-61.02,21.45-63.05,22.1-.25.08-.46.16-.63.23Z"/><path class="cls-1" d="M23.37,155.34s24.98,15.77,27.41,15.28,4.61-8.73,4.37-15.28-.49-11.15-8.49-9.46-24.01,5.82-23.29,9.46Z"/><path class="cls-1" d="M89.2,132.36c-2.99,2.75,9.22,4.85,19.89,4.12s15.52-2.91,5.34-8.49-13.1-6.79-25.23,4.37Z"/><path class="cls-1" d="M111.66,203.37c5.33,3.02,19.41,6.91,24.02,6.91s14.54-5.21,17.94-6.91,3.15-5.58-15.04-4.37-33.64.56-26.92,4.37Z"/><path class="cls-1" d="M201.89,176.93c6.07-4.6,15.64-12.31,6.31-14.31-13.58-2.91-19.4-9.94-16.25,0s4.81,18.2,9.94,14.31Z"/><path class="cls-7" d="M137.06,212.67c-5.93,0-13.96-1.58-25.43-6.23-20.48-8.3-54.12-28.1-72.19-38.74-5.68-3.34-9.78-5.76-11.15-6.44-4.7-2.35-7.39-4.2-7.2-6.72.18-2.4,2.93-3.29,3.84-3.58h0c.5-.16,49.76-15.98,62.59-21.93,3.19-1.48,5.58-2.79,7.5-3.84,6.48-3.56,8.94-4.52,17.61-1.05,1.88.75,5.55,2.26,10.39,4.25,21.87,9,73.08,30.06,81.04,31.03,5.45.67,10.03,1.47,10.78,4.65.63,2.7-1.74,5.48-8.46,9.92-12.22,8.06-46.56,29.59-52.98,33.29-.46.27-.92.54-1.39.83-3.41,2.06-7.53,4.55-14.95,4.55ZM25.54,154.99c.6.5,1.86,1.34,4.55,2.69,1.48.74,5.42,3.06,11.39,6.57,17.98,10.58,51.46,30.29,71.67,38.48,23.98,9.72,31.09,5.42,36.81,1.96.5-.3.98-.59,1.47-.87,6.38-3.68,40.6-25.13,52.78-33.17,5.34-3.52,6.47-5.13,6.7-5.63-.5-.38-2.15-1-7.3-1.63-8.5-1.04-58.2-21.48-82.08-31.31-4.82-1.98-8.47-3.49-10.35-4.24-7.33-2.93-8.51-2.28-14.2.84-1.98,1.08-4.43,2.43-7.75,3.97-13.06,6.05-61.02,21.45-63.05,22.1-.25.08-.46.16-.63.23Z"/><path class="cls-10" d="M132.09,138.82l2.8-58.24c.13-2.72,2.88-4.51,5.42-3.53l4.85,1.87c2.29.88,3.78,3.11,3.71,5.56l-1.59,61.4-15.19-7.06Z"/><path class="cls-1" d="M149.2,148.99l-19.17-8.92,2.86-59.58c.09-1.94,1.08-3.67,2.71-4.73,1.63-1.06,3.61-1.27,5.43-.57l4.85,1.87c3.07,1.18,5.08,4.19,4.99,7.48l-1.67,64.45ZM134.16,137.58l11.21,5.21,1.51-58.35c.04-1.6-.94-3.07-2.43-3.65l-4.85-1.87c-.6-.23-1.26-.16-1.8.19-.54.35-.87.93-.9,1.57l-2.73,56.9Z"/><path class="cls-5" d="M127.87,198.44c-2.96,0-5.74-.56-7.66-1.93l2.31-3.26c2.04,1.45,6.98,1.56,11.74.27,2.87-.78,4.38-1.76,4.86-2.27-2.03-1.82-1.88-3.74-1.62-4.73,1.66-6.15,16.91-9.65,21.55-10.58,3.65-.73,4.9-1.82,5.05-2.29.07-.23-.18-.61-.44-.9-1.38-1.48-4.78-2.61-7.87-1.85-1.33.33-2.51.66-3.58.96-5.45,1.53-9.05,2.54-14.7-2.4-3.57-3.12-2.56-7.97-1.59-12.65,1.02-4.93,1.99-9.59-1.39-12.86-1.5-1.45-3.01-2-4.6-1.67-4.09.85-8.37,7.15-10.11,11.34-.54,1.31-.95,3.73-1.38,6.3-1.19,7.09-2.82,16.8-9.84,19.83-2.75,1.19-4.89,1.1-6.35-.27-3-2.81-1.32-9.71,2.59-20.68,1.22-3.42,1.29-6.05.21-8.02-1.4-2.57-4.92-4.43-11.06-5.87-.95-.22-1.67-.06-2.35.51-3.7,3.12-4.37,16.02-3.93,23.42l-3.99.24c-.13-2.16-1.08-21.31,5.34-26.72,1.65-1.39,3.67-1.85,5.84-1.35,7.44,1.74,11.65,4.16,13.66,7.85,1.65,3.03,1.67,6.72.04,11.28-4.58,12.87-4.24,15.81-3.62,16.42h0s.52.17,2.03-.48c5.02-2.17,6.44-10.64,7.48-16.82.49-2.91.91-5.43,1.63-7.16,1.73-4.17,6.66-12.41,12.99-13.73,2.03-.42,5.09-.29,8.2,2.71,4.97,4.8,3.62,11.31,2.53,16.55-.94,4.51-1.38,7.35.31,8.83,4.02,3.52,5.78,3.03,10.98,1.56,1.11-.31,2.33-.65,3.7-.99,4.73-1.17,9.59.68,11.75,3,1.36,1.46,1.85,3.23,1.32,4.85-.77,2.39-3.49,4.07-8.07,4.99-11.95,2.39-18,5.94-18.47,7.7-.02.07-.07.26.45.73,1.7,1.51,1.9,3.6.52,5.34-2.07,2.6-8.62,4.8-14.46,4.8Z"/><path class="cls-1" d="M99.35,178.93c-2.11,0-3.98-.56-5.3-1.69-1.03-.88-2.61-2.9-1.53-6.47,1.36-4.52-1.78-11.44-5.45-14.82-1.55-1.43-2.44-1.51-2.55-1.46-.06.03-.31.31-.49,1.16-1.67,7.83-11.63,16.37-18.13,17.28-3.04.43-5.42-.65-6.69-3.04-2.79-5.24-9.64-2.84-9.93-2.73l-1.36-3.76c3.58-1.29,11.29-2,14.81,4.61.2.37.66,1.23,2.61.96,5-.7,13.49-8.14,14.77-14.16.6-2.82,2.12-3.82,3.28-4.16,2.06-.6,4.45.39,6.92,2.86,4.31,4.33,7.89,12.25,6.05,18.4-.48,1.61.11,2.12.3,2.28,1.15.99,4.28,1.08,7.5-.47,2.02-.97,6.7-3.92,6.49-10.32-.35-10.78,8.13-16.08,13.96-16.27,4.2-.15,7.12,2.13,7.24,5.65.21,6.1,3.23,10.83,9.24,14.46,1.25.76,2.59.75,4.09-.02,3.14-1.62,6.15-6.35,6.44-10.13.16-2.04,1.21-3.69,3.05-4.75,4.8-2.76,14.15-.79,18.04,1.09,3.29,1.59,4.2,6,4.93,9.54.08.4.18.85.27,1.28,1.05-1.06,2.37-1.72,3.88-1.91,4.88-.62,10.32,3.74,10.93,4.24l-2.55,3.08c-1.28-1.05-5.18-3.7-7.88-3.35-.78.1-1.36.45-1.84,1.11-.43.59-1.73,2.38-3.62,1.97-2.04-.44-2.51-2.73-3.11-5.62-.49-2.39-1.24-6.01-2.75-6.74-3.52-1.7-11.24-2.99-14.3-1.23-.69.4-1.01.87-1.06,1.58-.39,5.14-4.25,11.14-8.6,13.38-2.72,1.4-5.55,1.36-7.99-.11-7.16-4.32-10.92-10.3-11.18-17.75-.06-1.7-2.19-1.82-3.11-1.79-4.35.14-10.36,4.01-10.1,12.15.19,6.08-3.08,11.33-8.76,14.06-2.21,1.06-4.49,1.59-6.54,1.59ZM190.19,169.68s0,0,0,0l1.27-1.54-1.27,1.54Z"/><path class="cls-7" d="M167.5,144.41l-2.75-2.9,1.38,1.45-1.38-1.45c1.42-1.35,5.1-5.64,5.11-9.17,0-1.22-.44-2.26-1.37-3.15-.37-.35-.75-.64-1.15-.87-.48,1.02-1.06,2.05-1.73,3.1-.83,1.29-5.18,7.69-9.24,7.17-1.39-.18-2.47-1.13-2.96-2.61-1.18-3.59.87-7.89,4.98-10.46,2.09-1.31,4.31-1.93,6.42-1.89.51-1.99.44-3.67-.25-4.78-2.46-3.96-5.15-6.34-7.21-6.38-.14,0-.27,0-.4.02.14.76.26,1.55.34,2.39.78,8.02-.87,13.67-4.53,15.49-2.05,1.02-4.41.59-6.32-1.15-4.46-4.09-1.08-8.99,2.49-14.18.5-.73,1.03-1.5,1.56-2.29.59-.88,1.2-1.6,1.81-2.16-1.28-3.56-3.45-5.5-5.46-5.88-.65-.12-1.81-.16-2.48.9,1.94,3.96,1.98,9.46-.02,15.22-.95,2.73-1.76,4.26-3.29,4.48-.85.12-1.67-.23-2.19-.96-1.63-2.26-.45-13.08,1.07-18.32-.15-.19-.3-.36-.47-.53-2.24-2.24-5.45-1.76-7.76-.96-1.15.4-2.1.91-2.89,1.49,2.02,1.6,3.72,3.54,4.76,5.64,3.33,6.72.14,10.11-.92,10.99-2.31,1.92-5.67,2.04-8,.29-2.57-1.93-4.02-7.02-3.3-11.59.25-1.6.74-3.06,1.44-4.38-2.33-1.1-4.77-1.65-6.71-1.29-1.96.36-2.96,1.6-3.17,3.88-.11,1.17-.14,2.3-.11,3.37,3,.7,5.96,2.37,7.67,4.22,2.42,2.61,2.57,5.69.4,8.03-1.35,1.46-2.92,2.17-4.48,2.09.87.43,1.37,1.05,1.49,1.85.12.85-.27,1.69-1.02,2.18-1.86,1.22-7.05.68-11.21-1.87-.33-.2-.63-.41-.92-.62.98,3.68,2.62,5.83,7.64,5.83,5.81,0,6.89-1.17,6.9-1.18,0,0-.16.19-.16.65h4c0,1.36-1.05,4.52-10.73,4.52s-11.35-7.39-12.26-12.28l-.14-.74c-.38-2.01.49-3.03,1.07-3.47-.04-2.94,1.55-5.9,4.41-8.17.94-.75,2.09-1.17,3.34-1.32-.02-1.13.02-2.29.13-3.46.37-4.04,2.71-6.75,6.42-7.44,3.02-.56,6.65.27,9.94,1.98,1.39-1.29,3.1-2.3,5.1-2.99,4.58-1.59,8.65-1.03,11.52,1.57,1.43-1.36,3.48-1.95,5.65-1.55,2.89.54,6.31,2.93,8.27,7.85.57-.13,1.1-.17,1.57-.16,3.57.06,7.22,2.92,10.54,8.27,1.27,2.04,1.5,4.76.74,7.8.92.44,1.78,1.03,2.56,1.78,1.73,1.67,2.6,3.71,2.58,6.05-.03,5.97-6.1,11.8-6.35,12.04ZM163.1,127.81c-.93.22-1.82.61-2.58,1.09-2.42,1.52-3.8,3.85-3.36,5.63,1.19-.47,3.88-2.96,5.94-6.73ZM153.36,115.68c-.38.56-.76,1.11-1.12,1.64-3.92,5.69-4.74,7.44-3.08,8.96.67.62,1.29.79,1.83.52,1.12-.56,3.03-3.6,2.38-11.12ZM105.07,121.89c1.8.55,4.02,1.72,6.77,3.21.43.23.86.46,1.27.69-1.95-1.82-3.36-5.13-3.97-9.11-.48.07-.88.22-1.18.46-1.76,1.4-2.82,3.15-2.89,4.76ZM113.31,117.29c.68,3.23,1.92,5.44,3.05,5.94.18.08.65.29,1.6-.74.37-.4,1-1.08-.4-2.59-1.02-1.1-2.62-2.03-4.24-2.61ZM126.23,109.1c-.5.99-.77,1.99-.91,2.89-.59,3.79.82,7.07,1.75,7.77.84.63,2.17.55,3.04-.17,1.3-1.08,1.26-3.38-.1-6.13-.78-1.58-2.14-3.09-3.77-4.36Z"/><path class="cls-5" d="M121.85,186.45c-5.95,0-8.47-3.62-8.82-6.72-.49-4.38,2.87-9.91,10.07-11.54.76-.17,2.07-.58,2.31-1.42.22-.75-.28-2.25-1.91-3.91-2.88-2.93-8.41-5.43-13.75-3.97-4.67,1.28-7.81,1.09-9.88-.6-2.71-2.21-2.45-6.1-2.23-9.53.06-.94.12-1.82.12-2.64,0-4.01,3.48-5.1,6.56-6.06,3.74-1.17,7.98-2.5,10.61-8.13.35-.75.86-2.1.33-2.79-.72-.94-3.53-1.51-7.49-.78-4.26.78-6.93,2.46-7.27,3.21.99,3.81-1.63,9.05-5.45,10.83-3.11,1.46-6.32.37-8.58-2.9-.69-.99-1.08-.92-1.21-.9-2.69.48-7.23,9.53-8.54,14.75-1.1,4.37-6.04,6.23-9.99,5.44-4.18-.83-6.46-4.2-5.81-8.59.11-.77.07-1.19.03-1.39-1.05-.03-3.97,1.47-6.29,3.26l-2.45-3.17c2.19-1.7,7.64-5.44,10.86-3.56,1.59.93,2.19,2.76,1.8,5.43-.42,2.86,1.2,3.8,2.64,4.08,2.11.42,4.82-.5,5.33-2.49.68-2.69,5.44-16.57,11.71-17.7,1.15-.21,3.35-.15,5.21,2.56,1.68,2.44,3.07,1.79,3.6,1.55,2.06-.96,3.8-4.28,3.26-6.23-.32-1.14-.34-3.36,3.01-5.46,4.58-2.86,14.2-4.59,18.11-1.12,1.16,1.03,2.81,3.39.81,7.66-3.38,7.23-9.19,9.05-13.04,10.25-3.16.99-3.75,1.34-3.75,2.24,0,.95-.06,1.94-.13,2.9-.16,2.47-.34,5.26.77,6.17.54.44,2.07,1,6.29-.16,6.93-1.9,13.86,1.16,17.66,5.02,2.54,2.59,3.59,5.45,2.89,7.84-.43,1.47-1.69,3.38-5.27,4.19-4.76,1.08-7.29,4.51-6.98,7.2.22,2.01,1.99,3.16,4.84,3.16,6.79,0,11.99-1.6,13.59-4.17.81-1.31.7-2.96-.35-5.06-1.66-3.32-1.48-6.88.49-9.76,1.91-2.8,5.18-4.42,8.34-4.14,2.96.27,5.33,2.1,6.69,5.16,1.69,3.79,5.25,5.14,7.58,4.22,1.79-.71,2.27-2.68,1.32-5.42-1.48-4.24-1.45-7.34.12-9.45,2.28-3.09,6.92-3.17,12.31-2.97l-.15,4c-2.89-.11-7.73-.29-8.94,1.34-.7.95-.55,2.94.44,5.76,2.05,5.85-.67,9.29-3.62,10.45-4.05,1.61-10.06-.35-12.71-6.31-.75-1.7-1.93-2.66-3.4-2.8-1.71-.16-3.58.81-4.67,2.41-.66.97-1.57,3-.21,5.72,2.11,4.22,1.26,7.2.17,8.95-3.39,5.48-13.01,6.07-16.99,6.07Z"/><path class="cls-10" d="M64.45,181.75l2.79-58.2c.13-2.74,2.9-4.54,5.46-3.56l4.04,1.56c2.75,1.06,4.54,3.74,4.47,6.69l-1.57,60.57-15.19-7.06Z"/><path class="cls-1" d="M81.56,191.91l-19.17-8.92,2.86-59.55c.09-1.95,1.09-3.69,2.73-4.75,1.64-1.07,3.62-1.28,5.45-.57l4.04,1.56c3.53,1.36,5.84,4.83,5.75,8.61l-1.65,63.62ZM66.52,180.5l11.21,5.21,1.49-57.52c.05-2.1-1.23-4.02-3.19-4.78l-4.04-1.56c-.61-.24-1.28-.17-1.83.19-.55.36-.88.94-.91,1.59l-2.73,56.86Z"/><path class="cls-10" d="M53.74,121.57c-.33-2.93,1.88-11.89,10.72-10.24,22.81,4.26,33.77,5.28,31.01,20.74-1.42.02-5.97-1.27-6.83-1.41-.93-5-4.22-6.14-6.94-2.19-.31.45-2.28.46-2.81.32-3.38-.88-7.86-2.14-11.73-3.24-.82-7.38-8.37-6.63-9.02-2.64-.51-.15-4.34-.82-4.4-1.34Z"/><path class="cls-1" d="M95.43,134.07c-1.16,0-3.16-.47-5.64-1.09-.58-.14-1.3-.32-1.48-.35l-1.39-.23-.26-1.38c-.37-1.98-1.11-2.85-1.49-2.93-.28-.07-1,.29-1.83,1.5-1.26,1.83-4.92,1.13-4.96,1.12-2.88-.75-6.84-1.84-11.77-3.25l-1.29-.37-.15-1.34c-.26-2.36-1.4-3.79-3.05-3.83-.88-.02-1.86.42-2,1.29l-.36,2.25-2.19-.65c-.1-.03-.33-.07-.62-.14-3.11-.67-4.99-1.07-5.2-2.9h0c-.27-2.44.75-7.18,3.87-10.08,1.66-1.54,4.61-3.21,9.2-2.35,1.33.25,2.63.49,3.88.72,20.43,3.76,31.68,5.83,28.73,22.34l-.29,1.62-1.65.03s-.04,0-.07,0ZM90.28,128.98c.14.04.3.07.47.12.7.17,1.96.49,3.02.71,1.15-10.34-5.44-12.05-25.8-15.79-1.26-.23-2.55-.47-3.89-.72-2.4-.45-4.28,0-5.74,1.35-1.69,1.57-2.44,4.05-2.6,5.66.37.1.8.2,1.18.29,1.06-1.66,3.03-2.7,5.29-2.66,2.57.06,5.71,1.71,6.7,6.03,4.35,1.23,7.87,2.2,10.48,2.88.17.03.66.02,1.01-.02,1.63-2.1,3.64-3.07,5.6-2.65,1.98.42,3.5,2.14,4.28,4.8ZM55.72,121.35s0,0,0,0h0s0,0,0,0Z"/><path class="cls-1" d="M152.86,218.35c-11.62-3.96-16.37-4.37-10.1-21.01s16.65-42.3,22.65-54.03,20.09-3.76,36.29,1.64c17.39,5.79,40.93,16.65,53.49,22.65s8.32,13.64,1.3,34.38-5.76,47.03-24.76,42.57c-22.1-5.18-78.87-26.2-78.87-26.2Z"/><path class="cls-1" d="M235.69,247.04c-1.4,0-2.87-.18-4.42-.55-21.9-5.14-76.42-25.28-79.08-26.26-.68-.23-1.33-.45-1.96-.66-5.6-1.87-9.64-3.23-11.4-6.92-1.57-3.31-.98-7.95,2.07-16.02,5.64-14.96,16.35-41.75,22.74-54.24,5.81-11.35,17.97-6.88,30.85-2.14,2.55.94,5.18,1.9,7.86,2.8,17.66,5.88,41.24,16.77,53.72,22.74,12.94,6.19,10.05,14.53,4.28,31.15-.62,1.78-1.27,3.67-1.96,5.68-1.79,5.29-3.04,10.98-4.25,16.47-2.57,11.71-4.79,21.82-11.49,26.04-2.01,1.27-4.34,1.91-6.95,1.91ZM175.38,139.23c-3.68,0-6.35,1.42-8.18,4.99-6.31,12.34-16.95,38.95-22.56,53.83-2.55,6.75-3.22,10.73-2.2,12.89,1.03,2.16,4.22,3.23,9.06,4.85.65.22,1.32.44,2.01.68l.05.02c.57.21,56.9,21.03,78.63,26.13,3.42.8,6.15.52,8.33-.85,5.29-3.33,7.44-13.14,9.72-23.52,1.23-5.6,2.5-11.39,4.37-16.9.69-2.03,1.35-3.93,1.97-5.71,6.06-17.46,7.13-21.75-2.23-26.23-12.4-5.93-35.8-16.74-53.26-22.56-2.74-.91-5.4-1.89-7.97-2.84-7.53-2.77-13.35-4.77-17.73-4.77Z"/><path class="cls-10" d="M156.98,212.55c-11.62-3.96-16.37-4.37-10.1-21.01s16.65-42.3,22.65-54.03,20.09-3.76,36.29,1.64c17.39,5.79,40.93,16.65,53.49,22.65s8.32,13.64,1.3,34.38-5.76,47.03-24.76,42.57c-22.1-5.18-78.87-26.2-78.87-26.2Z"/><path class="cls-1" d="M239.81,241.24c-1.4,0-2.87-.18-4.42-.55-21.9-5.14-76.42-25.28-79.08-26.26-.68-.23-1.33-.45-1.96-.66-5.6-1.87-9.64-3.23-11.4-6.92-1.57-3.31-.98-7.95,2.07-16.02,5.64-14.96,16.35-41.75,22.74-54.24,5.81-11.35,17.97-6.88,30.85-2.15,2.55.94,5.18,1.9,7.86,2.8,17.67,5.89,41.24,16.78,53.72,22.74,12.94,6.19,10.05,14.53,4.28,31.15-.62,1.78-1.27,3.67-1.96,5.68-1.79,5.29-3.04,10.98-4.25,16.47-2.57,11.71-4.79,21.82-11.49,26.04-2.01,1.27-4.34,1.91-6.95,1.91ZM179.49,133.43c-3.68,0-6.35,1.42-8.18,4.99-6.31,12.34-16.95,38.95-22.56,53.83-2.55,6.75-3.22,10.73-2.2,12.89,1.03,2.16,4.22,3.23,9.06,4.85.65.22,1.32.44,2.01.68l.05.02c.57.21,56.9,21.03,78.63,26.13,3.42.8,6.15.52,8.33-.85,5.29-3.33,7.44-13.14,9.72-23.52,1.23-5.6,2.5-11.39,4.37-16.9.69-2.03,1.35-3.93,1.97-5.71,6.06-17.46,7.13-21.75-2.23-26.23-12.39-5.93-35.79-16.74-53.26-22.56-2.74-.91-5.4-1.89-7.97-2.84-7.53-2.77-13.35-4.77-17.73-4.77Z"/><path class="cls-10" d="M162.63,84.64c1.4-2.59,1.49-10.89-7.32-12.67-22.74-4.6-32.35-6.36-35.3,6.77,1.31.55,6.01,1.06,6.87,1.25,2.74-4.29,6.22-4.11,7.26.56.12.53,1.94,1.28,2.48,1.35,3.47.45,8.09.97,12.09,1.4,3.52-6.53,10.25-3.01,9.35.93.53.05,4.34.86,4.58.41Z"/><path class="cls-1" d="M161.99,86.79c-.93,0-2.09-.2-3.5-.45-.29-.05-.52-.09-.64-.11l-2.2-.27.46-2.17c.2-.86-.56-1.64-1.38-1.95-1.54-.58-3.13.32-4.26,2.41l-.64,1.18-1.34-.14c-5.1-.55-9.18-1.02-12.13-1.4-.04,0-3.7-.73-4.18-2.9-.32-1.43-.85-2.03-1.14-2.08-.39-.07-1.39.46-2.48,2.16l-.76,1.19-1.37-.31c-.18-.04-.92-.15-1.51-.23-2.58-.37-4.63-.68-5.69-1.13l-1.54-.65.37-1.63c3.43-15.21,15.58-12.75,37.65-8.29,5.12,1.04,7.47,3.97,8.54,6.25,1.58,3.37,1.27,7.25.14,9.34h0c-.48.89-1.27,1.19-2.4,1.19ZM160.04,82.54c.37.06.78.12,1.15.17.24-1.19.24-3.03-.57-4.76-.99-2.1-2.91-3.46-5.71-4.02-22.13-4.48-29.58-5.53-32.45,3.36,1.05.19,2.31.36,3.01.46.18.03.34.05.49.07,1.72-2.17,3.78-3.2,5.77-2.85,1.97.35,3.48,2,4.2,4.55.31.17.78.36.99.41,2.59.33,6.3.76,10.74,1.25,2.54-3.64,6.06-3.99,8.47-3.08,2.11.79,3.55,2.5,3.91,4.44Z"/><ellipse class="cls-3" cx="227.83" cy="220.25" rx="10.29" ry="10.14"/><path class="cls-9" d="M227.83,232.39c-6.78,0-12.29-5.45-12.29-12.14s5.51-12.14,12.29-12.14,12.29,5.45,12.29,12.14-5.51,12.14-12.29,12.14ZM227.83,212.11c-4.57,0-8.29,3.65-8.29,8.14s3.72,8.14,8.29,8.14,8.29-3.65,8.29-8.14-3.72-8.14-8.29-8.14Z"/><ellipse class="cls-2" cx="200.25" cy="210.11" rx="10.29" ry="10.14"/><path class="cls-7" d="M200.25,222.25c-6.78,0-12.29-5.45-12.29-12.14s5.51-12.14,12.29-12.14,12.29,5.45,12.29,12.14-5.51,12.14-12.29,12.14ZM200.25,201.97c-4.57,0-8.29,3.65-8.29,8.14s3.72,8.14,8.29,8.14,8.29-3.65,8.29-8.14-3.72-8.14-8.29-8.14Z"/><path class="cls-2" d="M175.69,209.28c-5.22,2.22-11.28-.15-13.53-5.29s.15-11.11,5.37-13.33,11.28.15,13.53,5.29-.15,11.11-5.37,13.33Z"/><path class="cls-7" d="M171.63,212.11c-4.76,0-9.3-2.74-11.3-7.32-1.3-2.96-1.35-6.25-.16-9.25,1.21-3.04,3.55-5.43,6.58-6.72,6.22-2.64,13.46.2,16.14,6.33,1.3,2.96,1.35,6.25.16,9.25-1.21,3.04-3.55,5.43-6.58,6.72-1.58.67-3.22.99-4.84.99ZM171.61,191.83c-1.1,0-2.21.22-3.29.67-2.05.87-3.62,2.47-4.43,4.51-.8,2-.76,4.19.11,6.17,1.81,4.13,6.71,6.04,10.91,4.26,2.05-.87,3.62-2.47,4.43-4.51.8-2,.76-4.19-.11-6.17-1.35-3.08-4.41-4.93-7.63-4.93Z"/><ellipse class="cls-3" cx="245.18" cy="173.75" rx="10.29" ry="10.14"/><path class="cls-9" d="M245.18,185.89c-6.78,0-12.29-5.45-12.29-12.14s5.51-12.14,12.29-12.14,12.29,5.45,12.29,12.14-5.51,12.14-12.29,12.14ZM245.18,165.61c-4.57,0-8.29,3.65-8.29,8.14s3.72,8.14,8.29,8.14,8.29-3.65,8.29-8.14-3.72-8.14-8.29-8.14Z"/><ellipse class="cls-2" cx="219.47" cy="162.39" rx="10.29" ry="10.14"/><path class="cls-7" d="M219.47,174.53c-6.78,0-12.29-5.45-12.29-12.14s5.51-12.14,12.29-12.14,12.29,5.45,12.29,12.14-5.51,12.14-12.29,12.14ZM219.47,154.25c-4.57,0-8.29,3.65-8.29,8.14s3.72,8.14,8.29,8.14,8.29-3.65,8.29-8.14-3.72-8.14-8.29-8.14Z"/><path class="cls-2" d="M196.46,161.56c-5.22,2.22-11.28-.15-13.53-5.29s.15-11.11,5.37-13.33,11.28.15,13.53,5.29-.15,11.11-5.37,13.33Z"/><path class="cls-7" d="M192.4,164.39c-4.76,0-9.3-2.74-11.3-7.32-1.3-2.96-1.35-6.25-.16-9.25,1.21-3.04,3.55-5.43,6.58-6.72,6.21-2.64,13.46.2,16.14,6.33,1.3,2.96,1.35,6.25.16,9.25-1.21,3.04-3.55,5.43-6.58,6.72-1.58.67-3.22.99-4.84.99ZM192.37,144.11c-1.1,0-2.21.22-3.29.67-2.05.87-3.62,2.47-4.43,4.51-.8,2-.76,4.19.11,6.17,1.81,4.13,6.71,6.04,10.91,4.26,2.05-.87,3.62-2.47,4.43-4.51.8-2,.76-4.19-.11-6.17-1.35-3.08-4.41-4.93-7.63-4.93Z"/><path class="cls-8" d="M43.07,202.77l7.25-12.29,3.35,1.73-7.09,12.18,7.06,3.64-.65,3.99-10.54-5.44.62-3.81ZM50.35,200.3l2.96,1.53-2.11,12.95-2.96-1.53,2.11-12.94Z"/><path class="cls-8" d="M56.14,215.76c-.62-1.52-.77-3.25-.45-5.21l1.63-10c.32-1.98.97-3.3,1.96-3.98.98-.68,2.24-.62,3.77.16,1.53.79,2.61,1.94,3.24,3.44.62,1.5.77,3.25.45,5.23l-1.63,10c-.32,1.98-.97,3.3-1.96,3.98-.98.68-2.24.62-3.76-.16-1.54-.79-2.61-1.95-3.23-3.46ZM61.49,215.06c.37-.42.65-1.17.82-2.24l1.28-7.88c.17-1.07.17-1.96-.02-2.68-.19-.72-.58-1.23-1.18-1.54-.6-.31-1.09-.25-1.46.17-.37.42-.65,1.17-.82,2.24l-1.28,7.88c-.17,1.07-.17,1.96.02,2.68.19.71.58,1.23,1.18,1.54.6.31,1.08.25,1.46-.17Z"/><path class="cls-8" d="M67.3,219.02l7.01-7.14c.32-.32.58-.68.79-1.08.21-.4.35-.8.41-1.21v-.03c.1-.6.04-1.12-.18-1.59-.22-.46-.59-.83-1.09-1.09-.49-.25-.92-.23-1.3.06-.38.29-.66.84-.86,1.63v.02s-3.04-1.57-3.04-1.57v-.02c.29-1.34.72-2.4,1.29-3.17.57-.78,1.24-1.25,2.02-1.41.78-.16,1.62,0,2.53.46.98.51,1.78,1.16,2.4,1.97.62.81,1.05,1.73,1.27,2.78.22,1.05.24,2.17.04,3.38v.02c-.17,1-.45,1.92-.86,2.78-.41.86-.9,1.57-1.48,2.13l-4.98,4.84,5.37,2.77-.65,3.99-9.3-4.8.61-3.74Z"/><path class="cls-8" d="M79.6,228.82c-.6-.88-1-1.9-1.2-3.08-.2-1.18-.18-2.47.05-3.87h0c.13-.81.34-1.62.62-2.43.28-.81.63-1.6,1.04-2.37.07-.13.14-.26.21-.38.07-.13.14-.25.22-.36l4.73-7.82,3.35,1.73-5.57,9.01-.66-.93c.26-.38.58-.61.97-.7.39-.08.81,0,1.28.23.87.45,1.56,1.09,2.09,1.92.53.83.87,1.82,1.03,2.97.16,1.15.13,2.41-.1,3.8h0c-.23,1.43-.61,2.54-1.13,3.37-.53.82-1.17,1.32-1.95,1.49s-1.65,0-2.62-.5c-.97-.5-1.75-1.19-2.35-2.06ZM83.92,226.87c.35-.28.6-.81.72-1.6v-.02c.15-.91.12-1.68-.08-2.32-.2-.64-.57-1.09-1.1-1.36s-.96-.23-1.33.13c-.36.35-.62.98-.77,1.87v.02c-.13.79-.09,1.46.13,2.04s.58.99,1.1,1.26c.53.27.97.27,1.32-.02Z"/><g class="cls-13"><polygon class="cls-8" points="184.59 132.78 205.11 227.09 237.8 236.82 217.04 142.51 184.59 132.78"/><polygon class="cls-8" points="227.68 147.52 249.01 231.44 255.74 215.43 239.99 152.86 227.68 147.52"/></g><g class="cls-11"><polygon class="cls-8" points="184.59 132.78 205.11 227.09 237.8 236.82 217.04 142.51 184.59 132.78"/><polygon class="cls-8" points="227.68 147.52 249.01 231.44 255.74 215.43 239.99 152.86 227.68 147.52"/></g><path class="cls-2" d="M212.47,170.98l4.56,4.35-.59,1.72-4.52-4.26-1.25,3.62-1.46-.5,1.86-5.4,1.4.48ZM213.46,174.95l-.52,1.52-4.74-1.63.52-1.52,4.74,1.63Z"/><path class="cls-2" d="M207.89,177.43c.55-.27,1.18-.28,1.89-.04l3.66,1.26c.72.25,1.22.65,1.47,1.2s.25,1.22-.02,2-.68,1.32-1.22,1.59-1.17.28-1.9.03l-3.66-1.26c-.72-.25-1.22-.65-1.47-1.2s-.25-1.22.02-2,.68-1.32,1.22-1.59ZM208.21,180.3c.16.22.43.39.83.53l2.89.99c.39.13.72.17.97.09s.44-.26.55-.57.08-.57-.08-.78-.43-.39-.83-.53l-2.89-.99c-.39-.13-.72-.17-.97-.09s-.44.26-.55.57-.08.57.08.78Z"/><path class="cls-2" d="M206.83,183.24l2.68,4.02c.12.18.25.34.4.46s.3.22.44.27h.01c.22.08.41.07.58-.03s.29-.28.38-.54.07-.48-.04-.69-.31-.39-.6-.52h0s.54-1.56.54-1.56h0c.49.21.88.48,1.17.81s.47.71.54,1.13.02.86-.14,1.33c-.17.5-.4.9-.69,1.2s-.62.49-1,.57-.79.04-1.23-.11h0c-.37-.13-.71-.32-1.02-.57s-.58-.54-.79-.87l-1.82-2.85-.95,2.75-1.46-.5,1.64-4.76,1.37.47Z"/><path class="cls-2" d="M203.41,189.41c.31-.29.68-.46,1.11-.52s.9,0,1.41.18h0c.29.1.59.24.89.43s.59.4.87.65c.05.04.1.08.14.13s.09.09.13.13l2.91,2.83-.59,1.72-3.35-3.32.33-.31c.14.15.23.33.27.54s.01.43-.07.67c-.15.44-.38.79-.67,1.04s-.65.39-1.07.43-.88-.03-1.38-.2h0c-.52-.18-.93-.43-1.23-.74s-.49-.68-.56-1.1-.02-.88.15-1.38.41-.89.72-1.17ZM204.17,191.79c.11.2.3.35.59.45h0c.33.12.61.13.84.05s.39-.26.48-.53.07-.5-.06-.71-.36-.37-.69-.48h0c-.29-.1-.53-.1-.74-.01s-.35.27-.45.54-.09.5.02.7Z"/><path class="cls-1" d="M239.81,241.24c-1.4,0-2.87-.18-4.42-.55-21.9-5.14-76.42-25.28-79.08-26.26-.68-.23-1.33-.45-1.96-.66-5.6-1.87-9.64-3.23-11.4-6.92-1.57-3.31-.98-7.95,2.07-16.02,5.64-14.96,16.35-41.75,22.74-54.24,5.81-11.35,17.97-6.88,30.85-2.15,2.55.94,5.18,1.9,7.86,2.8,17.67,5.89,41.24,16.78,53.72,22.74,12.94,6.19,10.05,14.53,4.28,31.15-.62,1.78-1.27,3.67-1.96,5.68-1.79,5.29-3.04,10.98-4.25,16.47-2.57,11.71-4.79,21.82-11.49,26.04-2.01,1.27-4.34,1.91-6.95,1.91ZM179.49,133.43c-3.68,0-6.35,1.42-8.18,4.99-6.31,12.34-16.95,38.95-22.56,53.83-2.55,6.75-3.22,10.73-2.2,12.89,1.03,2.16,4.22,3.23,9.06,4.85.65.22,1.32.44,2.01.68l.05.02c.57.21,56.9,21.03,78.63,26.13,3.42.8,6.15.52,8.33-.85,5.29-3.33,7.44-13.14,9.72-23.52,1.23-5.6,2.5-11.39,4.37-16.9.69-2.03,1.35-3.93,1.97-5.71,6.06-17.46,7.13-21.75-2.23-26.23-12.39-5.93-35.79-16.74-53.26-22.56-2.74-.91-5.4-1.89-7.97-2.84-7.53-2.77-13.35-4.77-17.73-4.77Z"/></g><g id="guy"><path class="cls-10" d="M226.83,59.93s10.03,19.1,6.47,36.41-3.26,34.86-8.74,34.69-7.05-17.92-11.15-16.58-3.99,13.71-9.16,13.57-6.4-13.62-8.18-19.07c-1.78-5.45-1.88-33.03-1.88-33.03l5.9-19.97,26.74,3.99Z"/><path class="cls-6" d="M203.53,130.15c-5.06-.76-6.77-8.53-8.29-15.43-.43-1.97-.84-3.83-1.25-5.1-1.83-5.62-1.98-30.85-1.99-33.71v-.32s6.53-22.11,6.53-22.11l29.73,4.44.52.99c.42.81,10.35,20,6.68,37.87-1.13,5.52-1.88,11.14-2.54,16.1-1.64,12.36-2.73,20.52-8.42,20.34-4.34-.13-6.34-5.57-8.29-10.83-.7-1.88-1.7-4.61-2.45-5.61-.76.83-1.64,3.38-2.14,4.84-1.33,3.88-2.99,8.71-7.42,8.59-.23,0-.45-.03-.66-.06ZM196.39,76.22c.05,10.97.56,28.32,1.77,32.04.48,1.48.91,3.44,1.37,5.52.79,3.59,2.62,11.98,4.78,12.04,1.21.03,2.33-3.24,3.15-5.63,1.16-3.38,2.37-6.88,5.26-7.83,3.96-1.29,5.81,3.69,7.59,8.51.95,2.57,2.9,7.91,4.31,7.96.16,0,.95-.59,1.77-3.61.87-3.16,1.47-7.69,2.16-12.93.67-5.03,1.43-10.73,2.59-16.4,2.91-14.19-3.88-29.93-5.79-33.97l-23.71-3.54-5.27,17.83Z"/><path class="cls-10" d="M200.34,103.78s-17.64,3.49-17.38-9.12c.79-24.85,9.81-32.05,9.81-32.05l21.55.09"/><path class="cls-6" d="M191.46,106.14c-2.53-.38-5.11-1.21-7.12-2.89-2.45-2.06-3.66-4.96-3.58-8.63.81-25.6,10.24-33.4,10.64-33.72l.6-.48,22.33.09-.02,4.39-20.66-.09c-1.77,1.93-7.88,9.99-8.51,29.93-.05,2.28.61,3.98,2.01,5.15,3.35,2.82,10.35,2.21,12.76,1.74l.85,4.3c-.28.06-4.69.9-9.3.21Z"/><path class="cls-10" d="M181.91,47.38c-8.61-24.71,2.51-39.02,16.22-44.13s33.04,9.34,33.33,27.7c.29,18.36-6.58,35.3-21.86,35.72-17.15.47-23.65-7.66-27.7-19.28Z"/><path class="cls-6" d="M202.07,68.44c-13.89-2.07-19.08-11.27-22.24-20.34-9.18-26.34,3.04-41.5,17.53-46.91,6.62-2.47,14.56-1.06,21.78,3.87,8.79,6,14.35,15.91,14.51,25.85.36,22.64-9.06,37.53-23.99,37.94-2.79.08-5.31-.07-7.59-.41ZM183.98,46.66c3.84,11.01,9.65,18.25,25.57,17.81,14.94-.41,19.97-18.3,19.73-33.49-.14-8.54-4.96-17.09-12.6-22.3-5.94-4.05-12.58-5.32-17.78-3.38-6.09,2.27-25.16,11.97-14.92,41.36h0Z"/><path class="cls-6" d="M191.65,106.01l-3.65-19.01s-1.1-3.85,7.27-5.22c10.1-1.66,8.84-2.73,12.08,8.11,0,0,5.75,17.28.16,18.49-6.75,1.46-14.58,4.29-15.86-2.37Z"/><path class="cls-10" d="M215.56,76.17c1.23,6.99,3.6,19.35-3.11,18.67s-11.91-2.75-10.81,2.93,3.95,6.1,11.15,7.83,15.45-4.5,15.35-11-.28-13.99-2.12-16.85"/><path class="cls-6" d="M213.35,107.93c-.36-.05-.72-.12-1.07-.21l-.93-.22c-6.58-1.56-10.55-2.51-11.86-9.32-.16-.82-.65-3.33.99-5.05,1.85-1.94,4.85-1.5,8.63-.94,1.14.17,2.32.34,3.56.47.82.08,1.06-.18,1.18-.31,1.55-1.67.38-10.52-.19-14.2-.14-.9.47-1.73,1.36-1.89h0c1.49-.26,2.89.78,3.07,2.28.56,4.76,1.33,14.25-1.03,16.79-.84.91-2.36,1.93-4.83,1.68-1.34-.13-2.62-.32-3.76-.49-1.71-.25-4.02-.59-4.78-.36-.02.16-.03.52.09,1.18.76,3.92,1.89,4.3,8.57,5.89l.94.22c2.88.69,6.35-.23,9.05-2.39,2.29-1.83,3.64-4.24,3.6-6.45-.06-4.08-.15-10.43-1.07-13.91-.3-1.15.19-2.36,1.19-3.01l.31-.2c.83-.53,1.96-.19,2.3.73,1.34,3.62,1.55,9.57,1.65,16.32.05,3.6-1.86,7.22-5.25,9.93-3.48,2.78-7.79,4.03-11.74,3.44Z"/><path class="cls-6" d="M194.18,52.23s-2.64-.02-2.92-4.09,1.03-5.26,2.44-2.91,1.77,7.47.47,6.99Z"/><path class="cls-6" d="M209.31,54.49s-2.64-.02-2.92-4.09,1.03-5.26,2.44-2.91,1.77,7.47.47,6.99Z"/></g><path class="cls-12" d="M84.29,85.83s-2.27-61.49-14.05-62.57c-11.78-1.08,7.75,17.2,14.05,62.57Z"/><path class="cls-12" d="M75.04,79.48S42.39,27.32,31.64,32.27c-10.75,4.94,15.3,11.04,43.39,47.22Z"/><path class="cls-12" d="M71.26,89.92s-53.52-30.36-60.62-20.9c-7.1,9.46,18.71,2.43,60.62,20.9Z"/></g></svg>