<?xml version="1.0" encoding="UTF-8"?>
<svg id="Layer_2" data-name="Layer 2" xmlns="http://www.w3.org/2000/svg" xmlns:xlink="http://www.w3.org/1999/xlink" viewBox="0 0 240.65 183.28">
  <defs>
    <style>
      .cls-1, .cls-2, .cls-3, .cls-4, .cls-5, .cls-6, .cls-7, .cls-8, .cls-9, .cls-10, .cls-11, .cls-12, .cls-13, .cls-14 {
        stroke-width: 0px;
      }

      .cls-1, .cls-15 {
        fill: #58595b;
      }

      .cls-2 {
        fill: #00c7b5;
      }

      .cls-3 {
        fill: #f05a28;
      }

      .cls-16 {
        fill: #929497;
        stroke: #929497;
      }

      .cls-16, .cls-17, .cls-18, .cls-19, .cls-20, .cls-15, .cls-21, .cls-22, .cls-23, .cls-24 {
        stroke-miterlimit: 10;
      }

      .cls-16, .cls-17, .cls-19, .cls-23, .cls-24 {
        stroke-width: 3px;
      }

      .cls-17 {
        fill: none;
      }

      .cls-17, .cls-19, .cls-15, .cls-21, .cls-24 {
        stroke: #58595b;
      }

      .cls-4 {
        fill: #4a5aa8;
      }

      .cls-18 {
        stroke: #009345;
      }

      .cls-18, .cls-20, .cls-15, .cls-21, .cls-22 {
        stroke-width: 2px;
      }

      .cls-18, .cls-9 {
        fill: #009345;
      }

      .cls-5 {
        fill: #6d6e70;
      }

      .cls-19 {
        fill: #bbbdbf;
      }

      .cls-6 {
        fill: #e6e7e8;
      }

      .cls-25 {
        clip-path: url(#clippath-1);
      }

      .cls-20 {
        fill: #1c232a;
        stroke: #37b34a;
      }

      .cls-21, .cls-14, .cls-24 {
        fill: #d0d2d3;
      }

      .cls-7 {
        fill: #808184;
      }

      .cls-26 {
        clip-path: url(#clippath);
      }

      .cls-8 {
        fill: #7582ff;
      }

      .cls-22 {
        fill: #f6921e;
        stroke: #f05a28;
      }

      .cls-10 {
        fill: #37b34a;
      }

      .cls-11 {
        fill: #2a367d;
      }

      .cls-12 {
        fill: #fff;
      }

      .cls-13 {
        fill: #be1e2d;
      }

      .cls-23 {
        fill: #a6a8ab;
        stroke: #a6a8ab;
      }
    </style>
    <clipPath id="clippath">
      <path class="cls-17" d="M111.04,103.16s33.53-33.31,38.23-36.63,7.83-2.63,20.13,2.06,32.65,14.22,35.78,16.38,2.25,2.14-4.02,7.29-33.54,37.03-36.9,37.87-5.82,1.06-17.67-5.43-31.39-16.91-33.99-17.66-3.1-2.36-1.57-3.88Z"/>
    </clipPath>
    <clipPath id="clippath-1">
      <path class="cls-17" d="M147.11,137.27s-15.43-10.94-20.12-9.4-22.81,17.22-27.5,24.69-7.86,14.28-1.92,19.38,17.32,12.47,23.15,8.89,5.82-13.86,6.27-19.68,5.19-15.48,11.43-16.24,12.52-5.09,8.7-7.65Z"/>
    </clipPath>
  </defs>
  <g id="Layer_7" data-name="Layer 7">
    <g>
      <g>
        <path class="cls-14" d="M8.86,54.39S-.56,72.34,2.78,88.59s3.06,32.74,8.21,32.58c5.15-.16,6.63-16.83,10.47-15.57s3.75,12.88,8.6,12.74,6.01-12.79,7.68-17.92,1.77-31.03,1.77-31.03l-5.54-18.76-25.11,3.75Z"/>
        <path class="cls-5" d="M30.74,120.35c4.76-.71,6.36-8.02,7.78-14.49.41-1.85.79-3.59,1.18-4.79,1.72-5.28,1.86-28.97,1.87-31.66v-.3s-6.13-20.76-6.13-20.76l-27.92,4.17-.49.93c-.4.76-9.72,18.79-6.27,35.57,1.06,5.18,1.77,10.46,2.38,15.12,1.54,11.61,2.56,19.27,7.91,19.11,4.08-.12,5.96-5.23,7.78-10.17.65-1.77,1.6-4.33,2.3-5.27.71.78,1.54,3.17,2.01,4.54,1.25,3.64,2.81,8.18,6.97,8.07.21,0,.42-.02.62-.05ZM37.45,69.7c-.05,10.3-.52,26.6-1.66,30.09-.45,1.39-.86,3.23-1.29,5.18-.74,3.37-2.46,11.26-4.49,11.31-1.13.03-2.19-3.04-2.96-5.29-1.09-3.18-2.22-6.46-4.94-7.35-3.72-1.22-5.45,3.47-7.13,7.99-.89,2.41-2.72,7.43-4.05,7.48-.15,0-.89-.56-1.67-3.39-.81-2.97-1.38-7.22-2.03-12.14-.63-4.73-1.34-10.08-2.43-15.41-2.74-13.33,3.64-28.12,5.43-31.9l22.27-3.32,4.95,16.75Z"/>
      </g>
      <g>
        <path class="cls-14" d="M52.74,48.4c8.09-23.21-2.36-36.65-15.24-41.45C24.62,2.15,6.47,15.72,6.19,32.97c-.27,17.25,6.18,33.15,20.53,33.55,16.11.44,22.21-7.2,26.02-18.11Z"/>
        <path class="cls-5" d="M33.8,68.19c13.05-1.95,17.92-10.58,20.89-19.11,8.62-24.74-2.85-38.98-16.46-44.06-6.22-2.32-13.68-1-20.46,3.63-8.26,5.64-13.48,14.94-13.63,24.28-.34,21.27,8.51,35.26,22.53,35.64,2.62.07,4.98-.07,7.13-.39ZM50.8,47.73c-3.6,10.34-9.07,17.14-24.02,16.73-14.04-.39-18.75-17.19-18.53-31.46.13-8.02,4.66-16.05,11.83-20.95,5.58-3.81,11.82-4.99,16.7-3.17,5.72,2.13,23.63,11.24,14.01,38.84h0Z"/>
      </g>
      <path class="cls-5" d="M43.01,96.58l1.24-18.14s.59-3.72-7.37-4.04c-9.61-.39-8.55-1.54-10.34,8.94,0,0-3.4,16.76,1.96,17.26,6.46.59,14.09,2.34,14.52-4.01Z"/>
      <g>
        <path class="cls-14" d="M21.58,69.97c-1.15,6.57-3.38,18.17,2.92,17.53,6.3-.64,11.19-2.58,10.16,2.75s-3.71,5.73-10.48,7.35c-6.76,1.62-14.51-4.23-14.42-10.34.09-6.11.26-13.14,1.99-15.83"/>
        <path class="cls-5" d="M23.65,99.8c.34-.05.67-.12,1.01-.19l.88-.21c6.18-1.47,9.91-2.35,11.14-8.75.15-.77.61-3.13-.93-4.74-1.74-1.82-4.55-1.41-8.11-.88-1.07.16-2.18.32-3.34.44-.77.08-.99-.17-1.1-.29-1.45-1.57-.36-9.88.17-13.33.13-.84-.44-1.63-1.28-1.78h0c-1.4-.25-2.71.73-2.88,2.14-.53,4.47-1.25,13.39.96,15.77.79.85,2.22,1.82,4.54,1.58,1.25-.13,2.46-.3,3.53-.46,1.61-.24,3.77-.56,4.49-.34.02.15.03.49-.09,1.1-.71,3.68-1.77,4.04-8.05,5.53l-.88.21c-2.71.65-5.96-.21-8.5-2.25-2.15-1.72-3.41-3.99-3.38-6.06.06-3.83.14-9.8,1-13.07.28-1.08-.18-2.22-1.12-2.82l-.29-.19c-.78-.5-1.84-.18-2.16.69-1.26,3.4-1.46,8.99-1.55,15.33-.05,3.38,1.75,6.78,4.93,9.33,3.26,2.61,7.31,3.79,11.03,3.23Z"/>
      </g>
      <path class="cls-5" d="M38.8,52.18s2.48-.02,2.74-3.84-.96-4.94-2.3-2.73-1.66,7.02-.44,6.57Z"/>
      <path class="cls-5" d="M24.6,54.3s2.48-.02,2.74-3.84-.96-4.94-2.3-2.73-1.66,7.02-.44,6.57Z"/>
    </g>
    <g>
      <g>
        <circle class="cls-12" cx="30.26" cy="48.86" r="11.88"/>
        <path class="cls-2" d="M29.22,62.69c-7.63-.57-13.36-7.24-12.79-14.86s7.24-13.36,14.86-12.79,13.36,7.24,12.79,14.86c-.57,7.62-7.24,13.36-14.86,12.79ZM30.99,39c-5.44-.41-10.19,3.69-10.6,9.12s3.69,10.19,9.12,10.6c5.44.41,10.19-3.68,10.6-9.12.41-5.44-3.68-10.19-9.12-10.6Z"/>
      </g>
      <polygon class="cls-2" points="40.21 43.99 29.54 60.29 36.06 60.78 41.92 52.1 40.21 43.99"/>
      <polygon class="cls-2" points="18.85 53.18 28.82 37.95 22.73 37.49 17.25 45.6 18.85 53.18"/>
      <polygon class="cls-2" points="37.51 40.77 24.54 59.92 26.13 60.54 39.48 40.92 37.51 40.77"/>
      <g>
        <ellipse class="cls-12" cx="51.93" cy="49.08" rx="10.97" ry="9.33" transform="translate(-8.95 86.48) rotate(-74.95)"/>
        <path class="cls-2" d="M50.41,61.91c-.44-.03-.88-.1-1.32-.19-2.69-.57-5.03-2.23-6.6-4.67-1.87-2.92-2.46-6.69-1.63-10.34,1.58-6.95,7.82-11.56,13.91-10.26,2.69.57,5.03,2.23,6.6,4.67,1.87,2.92,2.46,6.69,1.63,10.34h0c-1.47,6.45-6.94,10.88-12.59,10.45ZM53.14,40.21c-3.71-.28-7.37,2.86-8.4,7.37-.6,2.62-.2,5.29,1.1,7.32,1,1.56,2.41,2.57,4.07,2.92,3.97.85,8.11-2.41,9.21-7.25.6-2.63.2-5.29-1.1-7.32-1-1.56-2.41-2.57-4.07-2.92-.27-.06-.54-.1-.81-.12Z"/>
      </g>
      <polygon class="cls-2" points="59.46 45.26 50.22 59.98 55.33 60.6 60.4 52.77 59.46 45.26"/>
      <polygon class="cls-2" points="42.68 52.68 51.32 38.93 46.54 38.35 41.81 45.67 42.68 52.68"/>
      <polygon class="cls-2" points="57.51 42.23 46.31 59.51 47.53 60.13 59.05 42.42 57.51 42.23"/>
    </g>
    <g>
      <path class="cls-8" d="M165.81,83.46c6.77,2.7,42.75,15.3,49.88,16.77,7.13,1.47,11.72,5.25,11.4,13.51-.32,8.26.16,18.27-6.49,22.83-6.65,4.56-49.08,25.31-63.18,32.37-14.09,7.06-22.88,1.29-36.04-3.06-14.29-4.72-26.19-17.1-37.74-24.02-11.56-6.91-13.62-8.24-13.14-15.45s-2.22-10.74,9.18-15.6c11.4-4.86,61.86-23.25,69.09-27.37,7.23-4.12,12.99-1.62,17.04,0Z"/>
      <path class="cls-4" d="M138.06,173.95c5.96,1.35,13.12-.9,19.98-3.93,2.79-1.23,6.5-3.24,10.88-5.41,18.72-9.29,47.01-23.32,52.45-27.05,6.47-4.44,6.72-13.32,6.94-21.16.02-.88.05-1.75.08-2.6.31-8.13-3.75-12.95-12.42-14.74-6.88-1.42-42.66-13.92-49.64-16.7l-.34-.13c-4.1-1.64-10.3-4.12-17.91.22-4.39,2.5-26.09,10.77-43.53,17.41-11.31,4.31-21.07,8.03-25.42,9.88-9.59,4.08-10,7.45-9.9,13.04.02,1.12.04,2.29-.04,3.58-.53,8.01,3.01,8.46,13.74,16.54,6.95,5.23,26.6,18.76,40.43,24.95,7.69,3.44,9.05,4.79,14.7,6.1ZM156.79,82.42c3.12,0,5.81,1.08,8.17,2.02l.34.14c6.6,2.63,42.7,15.31,50.11,16.84,7.34,1.52,10.64,5.42,10.38,12.29-.03.86-.06,1.74-.08,2.63-.2,7.28-.43,15.53-5.88,19.27-5.29,3.63-34.61,18.17-52.13,26.86-4.38,2.17-8.16,4.05-10.89,5.41-13.58,6.81-19.52,4.38-32.47-2.29-6.9-3.56-15.2-6.84-24.17-13.2-5.68-4.02-10.33-7.8-15.82-11.54-11.26-7.68-12.97-7.98-12.55-14.35.09-1.39.07-2.66.05-3.77-.08-4.78-.13-7.17,8.37-10.79,4.3-1.83,14.05-5.54,25.33-9.84,18.44-7.02,39.33-14.98,43.9-17.59,2.68-1.53,5.12-2.08,7.34-2.08Z"/>
    </g>
    <g>
      <path class="cls-14" d="M213.26,107.88s-33.68-10.8-42.55-14.91-8.54-6.24-15.94-3.29-55.53,23.17-62.27,23.99c-6.74.82-9.2,1.97-.99,7.39,8.21,5.42,31.54,20.04,35.82,22.51,4.27,2.46,8.87,6.74,27.11-.66,18.24-7.39,52.41-28.59,56.35-30.56,3.94-1.97,5.66-3.44,2.46-4.48Z"/>
      <path class="cls-11" d="M137.73,148.4c4.01,0,9.45-1.07,17.22-4.22,13.87-5.62,36.66-19.04,48.9-26.24,3.85-2.26,6.63-3.9,7.55-4.36,3.19-1.59,5-2.85,4.88-4.55-.12-1.63-1.99-2.23-2.6-2.43h0c-.34-.11-33.7-10.83-42.4-14.85-2.16-1-3.78-1.89-5.08-2.6-4.39-2.41-6.06-3.06-11.93-.71-1.27.51-3.76,1.53-7.03,2.88-14.81,6.09-49.5,20.36-54.89,21.02-3.69.45-6.79,1-7.3,3.15-.43,1.83,1.18,3.71,5.73,6.72,8.27,5.46,31.54,20.04,35.88,22.55.31.18.62.37.94.56,2.31,1.4,5.1,3.08,10.13,3.08ZM213.27,109.33c-.4.34-1.26.91-3.08,1.82-1,.5-3.67,2.07-7.71,4.45-12.18,7.17-34.85,20.51-48.54,26.06-16.24,6.59-21.06,3.67-24.93,1.33-.34-.2-.67-.4-.99-.59-4.32-2.49-27.5-17.02-35.75-22.47-3.62-2.39-4.38-3.47-4.54-3.82.34-.26,1.45-.68,4.94-1.1,5.76-.7,39.42-14.55,55.6-21.2,3.26-1.34,5.74-2.36,7.01-2.87,4.96-1.98,5.77-1.55,9.62.57,1.34.73,3,1.65,5.25,2.69,8.85,4.1,41.33,14.53,42.71,14.97.17.06.31.11.42.15Z"/>
    </g>
    <path class="cls-13" d="M134.62,108.58c3.19,0,4.54,1.94,4.72,3.6.26,2.35-1.54,5.31-5.4,6.18-.41.09-1.11.31-1.24.76-.12.4.15,1.21,1.02,2.09,1.54,1.57,4.5,2.91,7.36,2.13,2.5-.68,4.18-.58,5.29.32,1.45,1.18,1.31,3.27,1.2,5.1-.03.5-.06.98-.06,1.41,0,2.15-1.87,2.73-3.51,3.25-2,.63-4.27,1.34-5.68,4.36-.19.4-.46,1.13-.18,1.49.39.5,1.89.81,4.01.42,2.28-.42,3.71-1.32,3.89-1.72-.53-2.04.87-4.85,2.92-5.8,1.67-.78,3.39-.2,4.6,1.55.37.53.58.49.65.48,1.44-.26,3.87-5.11,4.58-7.9.59-2.34,3.24-3.34,5.35-2.91,2.24.45,3.46,2.25,3.11,4.6-.06.41-.04.64-.02.74.56.02,2.13-.79,3.37-1.75l1.31,1.7c-1.17.91-4.09,2.91-5.82,1.9-.85-.5-1.18-1.48-.96-2.91.22-1.53-.64-2.03-1.41-2.19-1.13-.23-2.58.27-2.85,1.34-.36,1.44-2.92,8.88-6.27,9.48-.61.11-1.79.08-2.79-1.37-.9-1.31-1.65-.96-1.93-.83-1.11.52-2.04,2.3-1.75,3.34.17.61.18,1.8-1.61,2.92-2.45,1.53-7.61,2.46-9.7.6-.62-.55-1.5-1.82-.43-4.1,1.81-3.87,4.92-4.85,6.98-5.49,1.69-.53,2.01-.72,2.01-1.2,0-.51.03-1.04.07-1.55.09-1.32.18-2.82-.41-3.3-.29-.23-1.11-.53-3.37.09-3.71,1.02-7.43-.62-9.46-2.69-1.36-1.39-1.92-2.92-1.55-4.2.23-.79.91-1.81,2.82-2.25,2.55-.58,3.9-2.41,3.74-3.86-.12-1.08-1.07-1.69-2.59-1.69-3.64,0-6.42.86-7.28,2.24-.43.7-.37,1.59.19,2.71.89,1.78.79,3.69-.26,5.23-1.02,1.5-2.77,2.37-4.47,2.22-1.58-.14-2.86-1.12-3.58-2.76-.9-2.03-2.81-2.76-4.06-2.26-.96.38-1.22,1.44-.7,2.9.8,2.27.77,3.93-.06,5.06-1.22,1.65-3.71,1.7-6.59,1.59l.08-2.14c1.55.06,4.14.16,4.79-.72.37-.51.29-1.57-.24-3.08-1.1-3.13.36-4.97,1.94-5.6,2.17-.86,5.39.19,6.81,3.38.4.91,1.03,1.43,1.82,1.5.91.09,1.92-.44,2.5-1.29.35-.52.84-1.61.11-3.06-1.13-2.26-.67-3.86-.09-4.8,1.82-2.93,6.97-3.25,9.1-3.25Z"/>
    <path class="cls-1" d="M146.67,112.61c1.13,0,2.13.3,2.84.9.55.47,1.4,1.55.82,3.47-.73,2.42.96,6.13,2.92,7.94.83.76,1.31.81,1.37.78.03-.02.17-.17.26-.62.9-4.19,6.23-8.77,9.71-9.26,1.63-.23,2.9.35,3.59,1.63,1.5,2.81,5.16,1.52,5.32,1.46l.73,2.02c-1.92.69-6.05,1.07-7.94-2.47-.11-.2-.35-.66-1.4-.51-2.68.38-7.23,4.36-7.91,7.58-.32,1.51-1.13,2.05-1.76,2.23-1.1.32-2.38-.21-3.71-1.53-2.31-2.32-4.23-6.56-3.24-9.86.26-.86-.06-1.13-.16-1.22-.62-.53-2.29-.58-4.02.25-1.08.52-3.59,2.1-3.48,5.53.19,5.77-4.35,8.61-7.48,8.72-2.25.08-3.81-1.14-3.88-3.03-.11-3.27-1.73-5.8-4.95-7.74-.67-.41-1.39-.4-2.19.01-1.68.87-3.3,3.4-3.45,5.43-.08,1.1-.65,1.97-1.64,2.54-2.57,1.48-7.58.42-9.66-.58-1.76-.85-2.25-3.21-2.64-5.11-.04-.21-.09-.46-.15-.69-.56.57-1.27.92-2.08,1.02-2.61.33-5.53-2-5.85-2.27l1.36-1.65c.69.56,2.78,1.98,4.22,1.8.42-.05.73-.24.99-.6.23-.32.93-1.27,1.94-1.06,1.09.24,1.34,1.46,1.66,3.01.26,1.28.66,3.22,1.48,3.61,1.88.91,6.02,1.6,7.66.66.37-.21.54-.47.57-.85.21-2.75,2.28-5.97,4.61-7.17,1.46-.75,2.97-.73,4.28.06,3.84,2.32,5.85,5.52,5.99,9.51.03.91,1.17.98,1.66.96,2.33-.08,5.55-2.15,5.41-6.51-.1-3.25,1.65-6.07,4.69-7.53,1.18-.57,2.4-.85,3.5-.85ZM98.01,117.57s0,0,0,0l-.68.83.68-.83Z"/>
    <path class="cls-1" d="M85.62,117.51s16.92,10.68,18.56,10.35,3.12-5.91,2.96-10.35-.33-7.55-5.75-6.4c-5.42,1.15-16.26,3.94-15.77,6.4Z"/>
    <path class="cls-1" d="M214.74,109.57s-16.92,10.68-18.56,10.35-3.12-5.91-2.96-10.35.33-7.55,5.75-6.4c5.42,1.15,16.26,3.94,15.77,6.4Z"/>
    <path class="cls-1" d="M170.15,94c2.03,1.86-6.24,3.29-13.47,2.79-7.23-.49-10.51-1.97-3.61-5.75,6.9-3.78,8.87-4.6,17.09,2.96Z"/>
    <path class="cls-1" d="M154.94,142.1c-3.61,2.04-13.15,4.68-16.27,4.68s-9.85-3.53-12.15-4.68-2.14-3.78,10.19-2.96c12.32.82,22.78.38,18.24,2.96Z"/>
    <path class="cls-4" d="M137.73,148.4c4.01,0,9.45-1.07,17.22-4.22,13.87-5.62,36.66-19.04,48.9-26.24,3.85-2.26,6.63-3.9,7.55-4.36,3.19-1.59,5-2.85,4.88-4.55-.12-1.63-1.99-2.23-2.6-2.43h0c-.34-.11-33.7-10.83-42.4-14.85-2.16-1-3.78-1.89-5.08-2.6-4.39-2.41-6.06-3.06-11.93-.71-1.27.51-3.76,1.53-7.03,2.88-14.81,6.09-49.5,20.36-54.89,21.02-3.69.45-6.79,1-7.3,3.15-.43,1.83,1.18,3.71,5.73,6.72,8.27,5.46,31.54,20.04,35.88,22.55.31.18.62.37.94.56,2.31,1.4,5.1,3.08,10.13,3.08ZM213.27,109.33c-.4.34-1.26.91-3.08,1.82-1,.5-3.67,2.07-7.71,4.45-12.18,7.17-34.85,20.51-48.54,26.06-16.24,6.59-21.06,3.67-24.93,1.33-.34-.2-.67-.4-.99-.59-4.32-2.49-27.5-17.02-35.75-22.47-3.62-2.39-4.38-3.47-4.54-3.82.34-.26,1.45-.68,4.94-1.1,5.76-.7,39.42-14.55,55.6-21.2,3.26-1.34,5.74-2.36,7.01-2.87,4.96-1.98,5.77-1.55,9.62.57,1.34.73,3,1.65,5.25,2.69,8.85,4.1,41.33,14.53,42.71,14.97.17.06.31.11.42.15Z"/>
    <g>
      <path class="cls-14" d="M141.1,98.38l-1.89-39.45c-.09-1.84-1.95-3.06-3.67-2.39l-3.29,1.27c-1.55.6-2.56,2.11-2.51,3.77l1.08,41.59,10.29-4.79Z"/>
      <path class="cls-1" d="M129.51,105.26l12.99-6.04-1.94-40.36c-.06-1.32-.73-2.49-1.84-3.21-1.1-.72-2.44-.86-3.67-.39l-3.29,1.27c-2.08.8-3.44,2.84-3.38,5.07l1.13,43.65ZM139.7,97.53l-7.59,3.53-1.02-39.52c-.03-1.09.63-2.08,1.65-2.47l3.29-1.27c.41-.16.85-.11,1.22.13.37.24.59.63.61,1.06l1.85,38.54Z"/>
    </g>
    <path class="cls-15" d="M149.26,68.32s3.82-3.3,4.97-4.65.16-4.27.87-4.84,2.24-2.27,3.17-.4.88,6.41.82,8.25-.72,2.26-1.99,3.01-.23-2.35-1.29-2.14-3.81,3.61-5.16,3.79-2.58-2.14-1.38-3.04Z"/>
    <g>
      <path class="cls-9" d="M172.74,61.57l-3.4-1.14c-.55-.15-1.13-.17-1.68-.03-1.94.46-5.43,2.98-5.71,8-.24,4.41.34,5.78,1.26,6.81.38.43.9.73,1.48.89l4.26,1.69c1.78.51,2.29-1.36,2.58-3.01l.6-3.46.87-7.49c.16-1.34,1.04-1.56-.26-2.27Z"/>
      <ellipse class="cls-18" cx="170.75" cy="69.65" rx="7.24" ry="5.02" transform="translate(81.79 231.19) rotate(-83.35)"/>
    </g>
    <g>
      <path class="cls-10" d="M177.65,63.33l-3.4-1.14c-.55-.15-1.13-.17-1.68-.03-1.94.46-5.43,2.98-5.71,8-.24,4.41.34,5.78,1.26,6.81.38.43.9.73,1.48.89l4.26,1.69c1.78.51,2.29-1.36,2.58-3.01l.6-3.46.87-7.49c.16-1.34,1.04-1.56-.26-2.27Z"/>
      <ellipse class="cls-20" cx="175.66" cy="71.41" rx="7.24" ry="5.02" transform="translate(84.38 237.61) rotate(-83.35)"/>
    </g>
    <g>
      <path class="cls-9" d="M199.52,72.41l-3.25-1.05c-.53-.14-1.08-.16-1.61-.04-1.85.4-5.16,2.64-5.39,7.14-.2,3.95.36,5.19,1.25,6.12.37.39.86.66,1.41.81l4.08,1.55c1.7.47,2.18-1.2,2.44-2.68l.55-3.1.78-6.71c.14-1.2.98-1.39-.26-2.04Z"/>
      <ellipse class="cls-18" cx="197.68" cy="79.65" rx="6.49" ry="4.79" transform="translate(95.66 266.78) rotate(-83.35)"/>
    </g>
    <g>
      <path class="cls-10" d="M204.95,74.94l-3.06-1.54c-.5-.22-1.04-.32-1.58-.29-1.89.11-5.51,1.81-6.43,6.23-.81,3.87-.44,5.18.3,6.24.3.44.75.78,1.27,1.02l3.79,2.16c1.61.72,2.34-.86,2.82-2.27l1.02-2.98,1.8-6.51c.32-1.17,1.18-1.23.05-2.05Z"/>
      <ellipse class="cls-20" cx="202.02" cy="81.81" rx="6.49" ry="4.79" transform="translate(69.28 254.69) rotate(-74.53)"/>
    </g>
    <path class="cls-1" d="M109.03,103.16s36.86-27.66,41.56-30.98,7.83-2.63,20.13,2.06,34.02,8.57,37.15,10.74,2.53,6.34-5.39,12.94c-6.24,5.19-33.54,37.03-36.9,37.87s-5.82,1.06-17.67-5.43-31.65-16.31-33.99-17.66c-6.66-3.85-6.42-8.01-4.89-9.53Z"/>
    <g>
      <g class="cls-26">
        <path class="cls-24" d="M111.04,103.16s33.53-33.31,38.23-36.63,7.83-2.63,20.13,2.06,32.65,14.22,35.78,16.38,2.25,2.14-4.02,7.29-33.54,37.03-36.9,37.87-5.82,1.06-17.67-5.43-31.39-16.91-33.99-17.66-3.1-2.36-1.57-3.88Z"/>
        <ellipse class="cls-22" cx="144.97" cy="81.32" rx="7.43" ry="5.92" transform="translate(-16.53 120.65) rotate(-42.97)"/>
        <ellipse class="cls-22" cx="131.76" cy="93.64" rx="7.43" ry="5.92" transform="translate(-28.47 114.94) rotate(-42.97)"/>
        <ellipse class="cls-22" cx="180.4" cy="96.56" rx="7.48" ry="7.21" transform="translate(-10.76 169.53) rotate(-49.05)"/>
        <ellipse class="cls-22" cx="168.48" cy="110.29" rx="7.48" ry="7.21" transform="translate(-25.24 165.26) rotate(-49.05)"/>
        <g>
          <polygon class="cls-12" points="154.42 64.48 192.81 115.09 175.24 131.17 133.4 71.72 152.4 57.49 154.42 64.48"/>
          <path class="cls-12" d="M130.06,74.15l43.22,58.08-11.48,2.1s-21.42-45.72-36.42-54.95,5.71-17.85,5.71-17.85l-1.03,12.61Z"/>
        </g>
        <g>
          <path class="cls-4" d="M142.59,89.1l5.78-4.29,1.91.88-5.67,4.26,4.03,1.86-.81,1.5-6.02-2.77.78-1.43ZM147.38,88.61l1.69.78-2.64,4.87-1.69-.78,2.64-4.87Z"/>
          <path class="cls-4" d="M149.42,94.95c-.23-.63-.15-1.31.25-2.04l2.04-3.76c.4-.74.94-1.22,1.63-1.42.68-.2,1.46-.1,2.33.3.88.4,1.43.92,1.67,1.54.23.62.15,1.3-.26,2.05l-2.04,3.76c-.4.74-.95,1.22-1.63,1.42-.68.2-1.46.1-2.33-.3-.88-.4-1.43-.92-1.66-1.54ZM152.82,95.02c.28-.14.52-.41.74-.81l1.61-2.96c.22-.4.3-.75.26-1.04-.04-.29-.24-.51-.58-.67-.34-.16-.65-.17-.93-.03-.28.14-.52.41-.74.81l-1.61,2.96c-.22.4-.3.75-.26,1.04.04.29.24.51.58.67.34.16.65.17.93.03Z"/>
          <path class="cls-4" d="M156.04,96.92l5.1-2.31c.23-.1.43-.22.6-.37.17-.14.3-.29.38-.44h0c.12-.24.14-.44.05-.64-.09-.19-.28-.36-.57-.49-.28-.13-.55-.15-.82-.06-.26.09-.5.28-.7.58h0s-1.74-.79-1.74-.79h0c.32-.5.69-.89,1.13-1.15.43-.26.9-.4,1.4-.42.5-.01,1.01.1,1.53.34.56.26.99.56,1.3.91.31.35.48.74.51,1.15.03.42-.07.86-.32,1.31h0c-.2.38-.48.72-.82,1.03-.34.3-.72.55-1.14.73l-3.6,1.55,3.07,1.41-.81,1.5-5.31-2.45.76-1.41Z"/>
          <path class="cls-4" d="M162.71,101.49c-.29-.38-.43-.8-.44-1.27,0-.47.14-.97.42-1.49h0c.16-.31.37-.6.63-.9.26-.3.56-.58.89-.85.06-.05.11-.09.17-.14.06-.04.12-.09.17-.13l3.75-2.72,1.91.88-4.4,3.13-.31-.4c.2-.13.42-.2.68-.21.25,0,.51.05.77.17.49.23.86.52,1.11.87.25.35.36.76.34,1.21-.02.45-.17.94-.45,1.46h0c-.29.54-.64.94-1.05,1.23-.41.28-.87.44-1.37.45s-1.03-.1-1.58-.36c-.55-.25-.97-.57-1.26-.95ZM165.61,101.01c.25-.09.45-.28.62-.57h0c.18-.35.25-.65.18-.91-.06-.26-.24-.46-.54-.6s-.58-.15-.84-.04c-.26.11-.49.34-.67.68h0c-.16.3-.2.57-.13.8s.26.42.56.56c.3.14.58.16.83.08Z"/>
        </g>
      </g>
      <path class="cls-17" d="M111.04,103.16s33.53-33.31,38.23-36.63,7.83-2.63,20.13,2.06,32.65,14.22,35.78,16.38,2.25,2.14-4.02,7.29-33.54,37.03-36.9,37.87-5.82,1.06-17.67-5.43-31.39-16.91-33.99-17.66-3.1-2.36-1.57-3.88Z"/>
    </g>
    <g>
      <path class="cls-14" d="M186.91,127.45l-1.89-39.42c-.09-1.85-1.97-3.08-3.7-2.41l-2.74,1.06c-1.87.72-3.08,2.54-3.02,4.53l1.06,41.02,10.29-4.79Z"/>
      <path class="cls-1" d="M175.32,134.34l12.99-6.04-1.94-40.33c-.06-1.32-.74-2.5-1.85-3.22-1.11-.72-2.45-.86-3.69-.39l-2.74,1.06c-2.39.92-3.96,3.27-3.89,5.83l1.12,43.09ZM185.52,126.61l-7.59,3.53-1.01-38.96c-.04-1.42.83-2.72,2.16-3.24l2.74-1.06c.41-.16.87-.11,1.24.13.37.24.6.64.62,1.08l1.85,38.51Z"/>
    </g>
    <g>
      <path class="cls-14" d="M194.17,86.69c.22-1.98-1.28-8.05-7.26-6.94-15.45,2.88-22.87,3.58-21,14.04.96.02,4.04-.86,4.63-.96.63-3.39,2.86-4.16,4.7-1.49.21.3,1.54.31,1.9.22,2.29-.6,5.33-1.45,7.95-2.19.56-5,5.67-4.49,6.11-1.79.34-.1,2.94-.56,2.98-.91Z"/>
      <path class="cls-1" d="M165.93,95.16c.79,0,2.14-.32,3.82-.74.39-.1.88-.22,1.01-.24l.94-.15.17-.94c.25-1.34.75-1.93,1.01-1.98.19-.05.68.2,1.24,1.02.85,1.24,3.33.77,3.36.76,1.95-.51,4.63-1.25,7.98-2.2l.88-.25.1-.9c.18-1.6.95-2.57,2.07-2.6.6-.01,1.26.29,1.36.88l.24,1.52,1.48-.44c.07-.02.22-.05.42-.09,2.11-.45,3.38-.72,3.52-1.96h0c.18-1.65-.51-4.86-2.62-6.83-1.13-1.05-3.12-2.17-6.23-1.59-.9.17-1.78.33-2.63.49-13.84,2.54-21.46,3.95-19.46,15.13l.2,1.1,1.11.02s.03,0,.05,0ZM169.42,91.71c-.1.02-.2.05-.32.08-.47.12-1.33.33-2.04.48-.78-7,3.68-8.16,17.47-10.7.85-.16,1.73-.32,2.63-.49,1.63-.3,2.9,0,3.89.91,1.14,1.06,1.65,2.74,1.76,3.83-.25.07-.54.13-.8.19-.72-1.13-2.05-1.83-3.58-1.8-1.74.04-3.87,1.15-4.54,4.09-2.95.83-5.33,1.49-7.1,1.95-.11.02-.45.01-.69-.01-1.1-1.42-2.47-2.08-3.79-1.8-1.34.28-2.37,1.45-2.9,3.25ZM192.83,86.54s0,0,0,0h0s0,0,0,0Z"/>
    </g>
    <g>
      <path class="cls-14" d="M120.42,61.68c-.95-1.75-1.01-7.38,4.96-8.58,15.41-3.12,21.91-4.31,23.91,4.59-.88.37-4.07.72-4.65.85-1.86-2.9-4.21-2.79-4.91.38-.08.36-1.32.87-1.68.91-2.35.3-5.48.65-8.19.95-2.39-4.42-6.94-2.04-6.33.63-.36.03-2.94.58-3.1.28Z"/>
      <path class="cls-1" d="M120.85,63.13c.63,0,1.42-.14,2.37-.31.2-.03.36-.06.43-.07l1.49-.18-.31-1.47c-.13-.58.38-1.11.93-1.32,1.04-.39,2.12.22,2.89,1.63l.43.8.9-.1c3.45-.37,6.22-.69,8.22-.95.03,0,2.5-.49,2.83-1.97.22-.97.58-1.37.77-1.41.26-.05.94.31,1.68,1.46l.51.8.93-.21c.12-.03.62-.1,1.02-.16,1.75-.25,3.14-.46,3.85-.76l1.04-.44-.25-1.1c-2.32-10.3-10.55-8.64-25.5-5.62-3.47.7-5.06,2.69-5.78,4.23-1.07,2.28-.86,4.91-.1,6.32h0c.33.6.86.81,1.62.81ZM122.17,60.26c-.25.04-.53.08-.78.12-.16-.8-.17-2.05.38-3.22.67-1.43,1.97-2.34,3.87-2.73,14.99-3.03,20.04-3.75,21.98,2.27-.71.13-1.56.25-2.04.31-.12.02-.23.03-.33.05-1.17-1.47-2.56-2.17-3.91-1.93-1.33.24-2.36,1.35-2.84,3.09-.21.11-.53.24-.67.27-1.75.23-4.26.52-7.27.84-1.72-2.46-4.11-2.7-5.74-2.09-1.43.54-2.4,1.7-2.65,3.01Z"/>
    </g>
    <g>
      <path class="cls-12" d="M170.7,151.79l1.86-8.24,2.29-1.15-1.78,8.11,4.83-2.42.39,1.78-7.21,3.61-.38-1.69ZM174.48,147.06l2.03-1.02,1.28,5.76-2.03,1.02-1.27-5.76Z"/>
      <path class="cls-12" d="M180.85,149.54c-.66-.22-1.08-.76-1.27-1.63l-.98-4.45c-.19-.88-.07-1.7.37-2.46.44-.76,1.19-1.41,2.23-1.93,1.05-.53,1.9-.68,2.56-.47.65.21,1.08.76,1.27,1.64l.98,4.45c.19.88.07,1.7-.37,2.46-.44.76-1.18,1.4-2.23,1.93-1.05.53-1.9.68-2.56.46ZM183.83,146.47c.14-.35.15-.76.05-1.24l-.78-3.5c-.11-.48-.28-.79-.53-.95-.25-.16-.58-.13-.99.07-.41.21-.68.48-.82.83-.14.35-.15.76-.05,1.24l.78,3.5c.11.48.28.79.53.95.25.16.58.13.99-.07.41-.2.68-.48.82-.83Z"/>
      <path class="cls-12" d="M187.99,144.82l2.71-6.26c.12-.28.21-.55.25-.8.05-.25.05-.47,0-.65h0c-.06-.28-.2-.44-.42-.48-.22-.05-.5.01-.85.19-.34.17-.58.4-.75.71-.16.3-.23.65-.19,1.04h0s-2.08,1.05-2.08,1.05h0c-.09-.64-.05-1.24.14-1.82.18-.58.48-1.1.9-1.57.42-.47.94-.86,1.57-1.17.67-.34,1.26-.52,1.78-.56.52-.04.95.07,1.28.33.33.26.56.65.68,1.19h0c.1.45.11.93.04,1.46-.07.52-.22,1.04-.45,1.55l-1.97,4.37,3.67-1.84.39,1.78-6.36,3.19-.37-1.66Z"/>
      <path class="cls-12" d="M197.07,141.84c-.52,0-.95-.15-1.3-.47-.34-.32-.58-.79-.72-1.41h0c-.08-.36-.11-.76-.11-1.2,0-.44.06-.91.15-1.4.01-.08.03-.16.05-.25.02-.08.04-.17.06-.25l1.25-5.3,2.29-1.15-1.51,6.17h-.56c.08-.26.22-.51.43-.75.21-.24.47-.43.79-.59.59-.3,1.12-.44,1.59-.42.47.02.86.19,1.18.52.32.33.54.8.68,1.41h0c.14.63.13,1.23-.01,1.81-.15.57-.43,1.09-.85,1.56s-.96.87-1.63,1.2c-.66.33-1.25.5-1.77.5ZM199.22,138.86c.15-.29.19-.61.11-.96h0c-.09-.41-.26-.67-.5-.79-.24-.12-.54-.09-.9.09s-.61.43-.75.75c-.14.32-.17.68-.09,1.08h0c.08.36.23.58.47.67s.53.05.89-.13c.36-.18.62-.41.77-.7Z"/>
    </g>
    <g>
      <path class="cls-12" d="M94.7,138.72l2.14-5.53,1.18.85-2.09,5.48,2.49,1.79-.12,1.82-3.71-2.67.11-1.74ZM97.1,137.71l1.04.75-.38,5.91-1.04-.75.38-5.91Z"/>
      <path class="cls-12" d="M99.47,144.9c-.25-.71-.35-1.51-.29-2.4l.29-4.57c.06-.9.24-1.5.56-1.8.32-.3.74-.25,1.28.14.54.39.94.93,1.19,1.63.25.7.35,1.5.29,2.41l-.29,4.57c-.06.9-.24,1.5-.56,1.8-.32.3-.74.25-1.28-.14-.54-.39-.94-.94-1.19-1.64ZM101.26,144.67c.12-.19.19-.53.22-1.02l.23-3.6c.03-.49,0-.9-.08-1.23-.08-.33-.23-.57-.44-.72-.21-.15-.37-.13-.49.06-.12.19-.19.53-.22,1.02l-.23,3.6c-.03.49,0,.9.08,1.23.08.33.23.57.44.72.21.15.37.13.49-.06Z"/>
      <path class="cls-12" d="M103.33,146.58l2.19-3.16c.1-.14.18-.3.24-.48.06-.18.1-.36.11-.55h0c.02-.29-.02-.53-.1-.75-.09-.22-.22-.39-.4-.52-.17-.12-.32-.12-.44,0-.12.13-.2.37-.25.73h0s-1.07-.76-1.07-.76h0c.06-.62.18-1.1.35-1.44.17-.35.39-.55.65-.62.26-.06.55.02.87.25.35.25.63.56.87.94.23.38.4.81.5,1.3.1.48.14,1,.1,1.55h0c-.03.46-.1.88-.22,1.27-.12.39-.27.7-.45.95l-1.56,2.14,1.89,1.36-.12,1.82-3.28-2.36.11-1.71Z"/>
      <path class="cls-12" d="M107.75,151.28c-.23-.41-.39-.89-.49-1.44-.1-.54-.13-1.14-.08-1.78h0c.02-.37.07-.74.15-1.11.08-.37.17-.73.29-1.07.02-.06.04-.12.06-.17.02-.06.04-.11.06-.16l1.4-3.52,1.18.85-1.66,4.05-.25-.44c.08-.17.18-.27.31-.3.13-.03.28.01.44.13.3.22.56.52.76.91.2.39.34.85.43,1.38.08.53.11,1.11.07,1.74h0c-.04.65-.14,1.16-.3,1.53-.16.37-.36.59-.62.65s-.56-.03-.9-.27c-.34-.25-.62-.57-.85-.98ZM109.17,150.46c.11-.12.18-.36.2-.72h0c.03-.42,0-.78-.09-1.07-.09-.3-.22-.51-.41-.64s-.33-.12-.45.04c-.11.16-.19.44-.21.85h0c-.02.37,0,.68.1.94s.22.46.41.6c.19.13.33.14.45.01Z"/>
    </g>
    <path class="cls-21" d="M202.3,91.34s4.16-3.86,5.39-5.42,0-4.8.78-5.47,2.42-2.64,3.54-.57,1.25,7.16,1.26,9.23-.72,2.57-2.12,3.46-.36-2.62-1.53-2.34-4.13,4.21-5.64,4.47-2.99-2.29-1.68-3.35Z"/>
    <path class="cls-19" d="M102.68,112.34s-9.16-9.03-20.29-12.86-23.49,13.33-29.11,20.46c-8.38,10.63-2.33,13.54,3.92,18.81s13.67-.26,16.01-4.19,9.96-19.36,14.84-18.95,15.65,4.56,14.63-3.28Z"/>
    <g>
      <rect class="cls-24" x="93.1" y="119.78" width="2.43" height="63.17" rx="1.22" ry="1.22" transform="translate(-81.72 122.76) rotate(-48.84)"/>
      <rect class="cls-16" x="74.47" y="133.6" width="6.55" height="6.55" rx="3.27" ry="3.27" transform="translate(-72.6 90.24) rotate(-43.17)"/>
      <rect class="cls-24" x="80.57" y="135.52" width="2.24" height="9.61" rx="1.12" ry="1.12" transform="translate(-77.72 109.48) rotate(-48.84)"/>
      <rect class="cls-16" x="82.41" y="140.54" width="6.55" height="6.55" rx="3.27" ry="3.27" transform="translate(160.81 -5.79) rotate(57.45)"/>
      <rect class="cls-24" x="89.29" y="143.13" width="2.24" height="9.61" rx="1.12" ry="1.12" transform="translate(-80.48 118.65) rotate(-48.84)"/>
      <rect class="cls-16" x="90.38" y="147.5" width="6.55" height="6.55" rx="3.27" ry="3.27" transform="translate(-77.81 104.88) rotate(-43.17)"/>
      <rect class="cls-24" x="97.46" y="150.28" width="2.24" height="9.61" rx="1.12" ry="1.12" transform="translate(-83.06 127.25) rotate(-48.84)"/>
      <rect class="cls-16" x="98.29" y="154.42" width="6.55" height="6.55" rx="3.27" ry="3.27" transform="translate(-78.68 105.77) rotate(-41.14)"/>
      <rect class="cls-24" x="104.98" y="156.86" width="2.24" height="9.61" rx="1.12" ry="1.12" transform="translate(-85.44 135.16) rotate(-48.84)"/>
      <rect class="cls-16" x="106.28" y="161.4" width="6.55" height="6.55" rx="3.27" ry="3.27" transform="translate(-49.97 47.75) rotate(-20.12)"/>
      <rect class="cls-24" x="112.39" y="163.33" width="2.24" height="9.61" rx="1.12" ry="1.12" transform="translate(-87.79 142.95) rotate(-48.84)"/>
    </g>
    <g>
      <rect class="cls-24" x="78.49" y="114.08" width="2.43" height="63.17" rx="1.22" ry="1.22" transform="translate(-82.42 109.81) rotate(-48.84)"/>
      <rect class="cls-23" x="59.86" y="127.91" width="6.55" height="6.55" rx="3.27" ry="3.27" transform="translate(-72.66 78.7) rotate(-43.17)"/>
      <rect class="cls-24" x="65.96" y="129.82" width="2.24" height="9.61" rx="1.12" ry="1.12" transform="translate(-78.43 96.53) rotate(-48.84)"/>
      <rect class="cls-23" x="67.8" y="134.84" width="6.55" height="6.55" rx="3.27" ry="3.27" transform="translate(149.26 3.9) rotate(57.45)"/>
      <rect class="cls-24" x="74.67" y="137.44" width="2.24" height="9.61" rx="1.12" ry="1.12" transform="translate(-81.19 105.7) rotate(-48.84)"/>
      <rect class="cls-23" x="75.76" y="141.81" width="6.55" height="6.55" rx="3.27" ry="3.27" transform="translate(-77.87 93.34) rotate(-43.17)"/>
      <rect class="cls-24" x="82.85" y="144.59" width="2.24" height="9.61" rx="1.12" ry="1.12" transform="translate(-83.77 114.3) rotate(-48.84)"/>
      <rect class="cls-23" x="83.68" y="148.73" width="6.55" height="6.55" rx="3.27" ry="3.27" transform="translate(-78.54 94.74) rotate(-41.14)"/>
      <rect class="cls-24" x="90.37" y="151.16" width="2.24" height="9.61" rx="1.12" ry="1.12" transform="translate(-86.15 122.21) rotate(-48.84)"/>
      <rect class="cls-23" x="91.67" y="155.71" width="6.55" height="6.55" rx="3.27" ry="3.27" transform="translate(-48.9 42.37) rotate(-20.12)"/>
      <rect class="cls-24" x="97.78" y="157.64" width="2.24" height="9.61" rx="1.12" ry="1.12" transform="translate(-88.49 130) rotate(-48.84)"/>
    </g>
    <g>
      <rect class="cls-24" x="87.47" y="100.26" width="2.43" height="63.17" rx="1.22" ry="1.22" transform="translate(-69.91 122.1) rotate(-52.56)"/>
      <rect class="cls-23" x="67.94" y="115.19" width="6.55" height="6.55" rx="3.27" ry="3.27" transform="translate(-63.94 89.47) rotate(-46.88)"/>
      <rect class="cls-24" x="74.25" y="116.85" width="2.24" height="9.61" rx="1.12" ry="1.12" transform="translate(-67.04 107.53) rotate(-52.56)"/>
      <rect class="cls-23" x="76.31" y="121.6" width="6.55" height="6.55" rx="3.27" ry="3.27" transform="translate(133.2 -13.15) rotate(53.74)"/>
      <rect class="cls-24" x="83.44" y="123.88" width="2.24" height="9.61" rx="1.12" ry="1.12" transform="translate(-69.02 117.58) rotate(-52.56)"/>
      <rect class="cls-23" x="84.71" y="128.03" width="6.55" height="6.55" rx="3.27" ry="3.27" transform="translate(-68 105.78) rotate(-46.88)"/>
      <rect class="cls-24" x="92.06" y="130.48" width="2.24" height="9.61" rx="1.12" ry="1.12" transform="translate(-70.88 127.02) rotate(-52.56)"/>
      <rect class="cls-23" x="93.05" y="134.42" width="6.55" height="6.55" rx="3.27" ry="3.27" transform="translate(-69.08 108.03) rotate(-44.86)"/>
      <rect class="cls-24" x="99.99" y="136.56" width="2.24" height="9.61" rx="1.12" ry="1.12" transform="translate(-72.6 135.7) rotate(-52.56)"/>
      <rect class="cls-23" x="101.48" y="140.88" width="6.55" height="6.55" rx="3.27" ry="3.27" transform="translate(-49.32 54.63) rotate(-23.84)"/>
      <rect class="cls-24" x="107.8" y="142.54" width="2.24" height="9.61" rx="1.12" ry="1.12" transform="translate(-74.28 144.24) rotate(-52.56)"/>
    </g>
    <g>
      <rect class="cls-24" x="103.88" y="94.24" width="2.43" height="63.17" rx="1.22" ry="1.22" transform="translate(-58.63 134.25) rotate(-53.08)"/>
      <rect class="cls-23" x="84.23" y="109.33" width="6.55" height="6.55" rx="3.27" ry="3.27" transform="translate(-54.61 100.8) rotate(-47.4)"/>
      <rect class="cls-24" x="90.57" y="110.95" width="2.24" height="9.61" rx="1.12" ry="1.12" transform="translate(-55.93 119.51) rotate(-53.08)"/>
      <rect class="cls-23" x="92.65" y="115.66" width="6.55" height="6.55" rx="3.27" ry="3.27" transform="translate(133.75 -29.11) rotate(53.22)"/>
      <rect class="cls-24" x="99.82" y="117.9" width="2.24" height="9.61" rx="1.12" ry="1.12" transform="translate(-57.79 129.68) rotate(-53.08)"/>
      <rect class="cls-23" x="101.11" y="122.02" width="6.55" height="6.55" rx="3.27" ry="3.27" transform="translate(-58.5 117.33) rotate(-47.4)"/>
      <rect class="cls-24" x="108.5" y="124.42" width="2.24" height="9.61" rx="1.12" ry="1.12" transform="translate(-59.54 139.23) rotate(-53.08)"/>
      <rect class="cls-23" x="109.52" y="128.33" width="6.55" height="6.55" rx="3.27" ry="3.27" transform="translate(-60.11 119.44) rotate(-45.38)"/>
      <rect class="cls-24" x="116.49" y="130.42" width="2.24" height="9.61" rx="1.12" ry="1.12" transform="translate(-61.15 148.01) rotate(-53.08)"/>
      <rect class="cls-23" x="118" y="134.71" width="6.55" height="6.55" rx="3.27" ry="3.27" transform="translate(-46.11 62.29) rotate(-24.36)"/>
      <rect class="cls-24" x="124.35" y="136.33" width="2.24" height="9.61" rx="1.12" ry="1.12" transform="translate(-62.74 156.66) rotate(-53.08)"/>
    </g>
    <g id="Layer_8" data-name="Layer 8">
      <g>
        <g class="cls-25">
          <path class="cls-24" d="M147.11,137.27s-15.43-10.94-20.12-9.4-22.81,17.22-27.5,24.69-7.86,14.28-1.92,19.38,17.32,12.47,23.15,8.89,5.82-13.86,6.27-19.68,5.19-15.48,11.43-16.24,12.52-5.09,8.7-7.65Z"/>
          <path class="cls-12" d="M114.65,141.11s12.19,27.34,9.67,31,3.99,7.72,3.99,7.72l8.67-14.04-6.2-13.54s-11.65-6.77-12.44-10.37-2.9-10.57-2.9-10.57l-4.85,6.32,4.06,3.48Z"/>
          <circle class="cls-7" cx="116.16" cy="172.24" r="1.75"/>
          <circle class="cls-7" cx="101.72" cy="164.19" r="1.75"/>
          <circle class="cls-7" cx="111.82" cy="149.57" r="1.75"/>
          <circle class="cls-7" cx="118.82" cy="160.31" r="1.75"/>
          <circle class="cls-7" cx="123.92" cy="138.17" r="1.75"/>
          <path class="cls-12" d="M103.53,136.49s4.71,1.87,9.4,10.21,12.87,32.54,12.87,32.54l-4.15,4.2s-.41-18.09-10.72-33.98-16.08-20.82-16.08-20.82l8.67,7.84Z"/>
        </g>
        <path class="cls-17" d="M147.11,137.27s-15.43-10.94-20.12-9.4-22.81,17.22-27.5,24.69-7.86,14.28-1.92,19.38,17.32,12.47,23.15,8.89,5.82-13.86,6.27-19.68,5.19-15.48,11.43-16.24,12.52-5.09,8.7-7.65Z"/>
      </g>
    </g>
    <path class="cls-6" d="M236.25,36.95s-22.95,25.91-26.63,37.63c4.63-15.01,11-29.63-11.85-7.63,4.58-10.52-2.25-17.7-12.26-6.16,8.78-16.18,12.24-35.33,1.12-22.23,11.04-19.16,14.21-32.16,14.21-32.16v38.56h19.77l15.63-8Z"/>
    <path class="cls-3" d="M238.18,13.08c-3.58-17.96-23.25-13.34-33.85-9.76-10.6,3.58-6.58,26.19-8.62,34.22-5.2,20.5,19.52,11.99,29.36,11.43,8.12-.46,16.69-17.92,13.11-35.88ZM222.93,41.77c-7.22.41-25.37,6.66-21.55-8.39,1.49-5.89-1.45-22.49,6.33-25.12,7.78-2.63,22.22-6.02,24.85,7.17s-3.67,26-9.63,26.34Z"/>
    <path class="cls-6" d="M240.65,29.75s-2.47,14.5-8.8,18.34c9.09-1.04,8.21-7.3,8.8-18.34Z"/>
    <path class="cls-6" d="M195.77,8.44s-1.62,8.23-4.68,12.65c4.68-4.26,4.29-5.4,4.68-12.65Z"/>
  </g>
</svg>